<svg width="110" height="49" viewBox="0 0 110 49" fill="none" xmlns="http://www.w3.org/2000/svg">
<g id="svg-291265599_6113">
<path id="Vector" fill-rule="evenodd" clip-rule="evenodd" d="M67.9349 37.8576C61.5714 42.5481 52.3478 45.0506 44.4064 45.0506C33.2714 45.0506 23.247 40.9322 15.6631 34.0824C15.0673 33.5438 15.6011 32.8097 16.3161 33.2292C24.5006 37.9911 34.6203 40.8559 45.0738 40.8559C52.1237 40.8559 59.8792 39.3973 67.0102 36.3704C68.0875 35.9128 68.9884 37.0759 67.9349 37.8576Z" fill="#A1AEE5"/>
<path id="Vector_2" fill-rule="evenodd" clip-rule="evenodd" d="M70.5805 34.8308C69.7702 33.7917 65.2037 34.3398 63.154 34.5829C62.5296 34.6592 62.4342 34.1158 62.9967 33.7249C66.6337 31.1652 72.6016 31.9041 73.2975 32.7621C73.9935 33.6248 73.1164 39.6071 69.6987 42.4623C69.1743 42.9009 68.6738 42.6673 68.9074 42.0858C69.6749 40.1695 71.3956 35.8747 70.5805 34.8308Z" fill="#A1AEE5"/>
<path id="Vector_3" fill-rule="evenodd" clip-rule="evenodd" d="M63.2973 15.6538V13.1656C63.2973 12.789 63.5833 12.5364 63.9265 12.5364H75.0663C75.4238 12.5364 75.7098 12.7938 75.7098 13.1656V15.2963C75.7051 15.6538 75.4048 16.121 74.8709 16.8598L69.0984 25.1015C71.2434 25.049 73.5076 25.3684 75.4524 26.4647C75.891 26.7126 76.0101 27.0749 76.0435 27.4324V30.0875C76.0435 30.4497 75.6431 30.874 75.2236 30.6547C71.7964 28.8576 67.2441 28.6622 63.4546 30.6738C63.0685 30.8835 62.6633 30.464 62.6633 30.1018V27.5802C62.6633 27.175 62.6681 26.4838 63.0733 25.8689L69.761 16.2783H63.9408C63.5833 16.2783 63.2973 16.0256 63.2973 15.6538Z" fill="#A1AEE5"/>
<path id="Vector_4" fill-rule="evenodd" clip-rule="evenodd" d="M22.661 31.1793H19.2719C18.9477 31.1554 18.6903 30.9123 18.6665 30.6025V13.2087C18.6665 12.8608 18.9573 12.5843 19.3195 12.5843H22.4799C22.8088 12.5986 23.0709 12.8512 23.0948 13.1658V15.4396H23.1568C23.9814 13.2421 25.5306 12.2173 27.6184 12.2173C29.7396 12.2173 31.0647 13.2421 32.0181 15.4396C32.8379 13.2421 34.7017 12.2173 36.699 12.2173C38.1195 12.2173 39.6734 12.8036 40.622 14.1192C41.6945 15.5826 41.4752 17.7085 41.4752 19.5723L41.4705 30.5501C41.4705 30.898 41.1797 31.1793 40.8174 31.1793H37.4331C37.0946 31.1554 36.8229 30.8837 36.8229 30.5501V21.3312C36.8229 20.5972 36.8897 18.7667 36.7276 18.0708C36.475 16.903 35.7171 16.574 34.7351 16.574C33.9152 16.574 33.0572 17.1222 32.7093 17.9993C32.3613 18.8764 32.3946 20.3445 32.3946 21.3312V30.5501C32.3946 30.898 32.1039 31.1793 31.7416 31.1793H28.3572C28.014 31.1554 27.7471 30.8837 27.7471 30.5501L27.7423 21.3312C27.7423 19.3912 28.0617 16.5359 25.6545 16.5359C23.2187 16.5359 23.3141 19.3197 23.3141 21.3312V30.5501C23.3141 30.898 23.0233 31.1793 22.661 31.1793Z" fill="#A1AEE5"/>
<path id="Vector_5" fill-rule="evenodd" clip-rule="evenodd" d="M85.3003 12.2173C90.3292 12.2173 93.051 16.5359 93.051 22.0272C93.051 27.3325 90.0432 31.5415 85.3003 31.5415C80.362 31.5415 77.6736 27.2229 77.6736 21.8413C77.6736 16.4263 80.3954 12.2173 85.3003 12.2173ZM85.3289 15.7685C82.8312 15.7685 82.6739 19.1719 82.6739 21.2931C82.6739 23.419 82.6405 27.957 85.3003 27.957C87.9268 27.957 88.0507 24.2961 88.0507 22.0653C88.0507 20.5972 87.9888 18.843 87.5454 17.4511C87.1641 16.2404 86.4062 15.7685 85.3289 15.7685Z" fill="#A1AEE5"/>
<path id="Vector_6" fill-rule="evenodd" clip-rule="evenodd" d="M99.572 31.1793H96.1972C95.8587 31.1554 95.587 30.8837 95.587 30.5501L95.5823 13.1515C95.6109 12.8322 95.8921 12.5843 96.2353 12.5843H99.3766C99.6721 12.5986 99.9152 12.7988 99.9819 13.0705V15.7303H100.044C100.992 13.3517 102.322 12.2173 104.663 12.2173C106.183 12.2173 107.666 12.7654 108.619 14.267C109.506 15.6588 109.506 17.9993 109.506 19.6819V30.6311C109.468 30.9362 109.186 31.1793 108.853 31.1793H105.454C105.144 31.1554 104.887 30.9266 104.854 30.6311V21.1835C104.854 19.2815 105.073 16.4978 102.732 16.4978C101.908 16.4978 101.15 17.0507 100.773 17.8897C100.297 18.9526 100.235 20.0109 100.235 21.1835V30.5501C100.23 30.898 99.9343 31.1793 99.572 31.1793Z" fill="#A1AEE5"/>
<path id="Vector_7" fill-rule="evenodd" clip-rule="evenodd" d="M54.4169 22.8707C54.4169 24.1911 54.4503 25.2922 53.783 26.4649C53.2443 27.4182 52.3863 28.0045 51.4377 28.0045C50.1364 28.0045 49.3737 27.013 49.3737 25.5496C49.3737 22.661 51.9621 22.1367 54.4169 22.1367V22.8707ZM57.8347 31.1315C57.6106 31.3317 57.2865 31.346 57.0339 31.2125C55.9089 30.2782 55.7039 29.8445 55.089 28.9531C53.23 30.8502 51.9096 31.4175 49.5024 31.4175C46.6472 31.4175 44.4307 29.6586 44.4307 26.136C44.4307 23.3856 45.9179 21.5122 48.0438 20.597C49.8838 19.7867 52.453 19.6437 54.4169 19.4196V18.9811C54.4169 18.1755 54.4789 17.2222 54.0022 16.5263C53.5923 15.9018 52.801 15.6444 52.1003 15.6444C50.8085 15.6444 49.6598 16.307 49.3785 17.6798C49.3213 17.9849 49.0973 18.2852 48.7874 18.2995L45.5032 17.9467C45.2267 17.8848 44.9169 17.6607 44.9979 17.2365C45.751 13.2515 49.3547 12.0503 52.577 12.0503C54.2263 12.0503 56.3808 12.4888 57.6821 13.7377C59.3314 15.2774 59.1741 17.3318 59.1741 19.5674V24.8489C59.1741 26.4363 59.8319 27.1322 60.4516 27.9902C60.6661 28.2953 60.7138 28.6623 60.4373 28.8911C59.7461 29.4679 58.5163 30.5404 57.8394 31.141L57.8347 31.1315Z" fill="#A1AEE5"/>
<path id="Vector_8" fill-rule="evenodd" clip-rule="evenodd" d="M9.98627 22.8707C9.98627 24.1911 10.0196 25.2922 9.35229 26.4648C8.81365 27.4182 7.96041 28.0045 7.00707 28.0045C5.70575 28.0045 4.94785 27.013 4.94785 25.5496C4.94785 22.661 7.53617 22.1367 9.98627 22.1367V22.8707ZM13.404 31.1315C13.18 31.3317 12.8558 31.346 12.6032 31.2125C11.4782 30.2782 11.278 29.8444 10.6584 28.9531C8.79935 30.8502 7.48374 31.4175 5.07178 31.4175C2.22129 31.4175 0 29.6585 0 26.1359C0 23.3855 1.49198 21.5122 3.61317 20.597C5.45312 19.7867 8.02238 19.6437 9.98627 19.4196V18.9811C9.98627 18.1755 10.0482 17.2222 9.57633 16.5262C9.16162 15.9018 8.37035 15.6444 7.67441 15.6444C6.38263 15.6444 5.22908 16.307 4.94785 17.6798C4.89065 17.9849 4.66661 18.2852 4.36154 18.2995L1.07251 17.9467C0.796041 17.8848 0.490971 17.6607 0.567238 17.2365C1.32515 13.2515 4.92401 12.0503 8.14631 12.0503C9.79559 12.0503 11.9501 12.4888 13.2515 13.7377C14.9007 15.2774 14.7434 17.3318 14.7434 19.5674V24.8489C14.7434 26.4362 15.4013 27.1322 16.0209 27.9902C16.2402 28.2953 16.2879 28.6623 16.0114 28.8911C15.3202 29.4679 14.0904 30.5404 13.4135 31.141L13.404 31.1315Z" fill="#A1AEE5"/>
</g>
</svg>
