<svg width="51" height="41" viewBox="0 0 51 41" fill="none" xmlns="http://www.w3.org/2000/svg">
<g id="fa-brands:aws">
<path id="Vector" d="M14.3008 16.03C14.2446 17.7996 15.1289 18.5832 15.1508 19.0808C15.1404 19.1821 15.1059 19.2794 15.0502 19.3646C14.9944 19.4499 14.9191 19.5205 14.8305 19.5707L13.8305 20.2707C13.7011 20.3614 13.5485 20.4134 13.3906 20.4207C13.3571 20.4191 12.7508 20.5636 11.7907 18.4199C11.2049 19.1511 10.4595 19.7386 9.6117 20.1374C8.76388 20.5362 7.83605 20.7357 6.89924 20.7207C5.62737 20.7902 2.18049 19.9988 2.35784 16.3293C2.23362 13.3386 5.01877 11.4808 7.89924 11.6378C8.45393 11.6394 9.58674 11.6668 11.5703 12.1277V10.9074C11.7805 8.84019 10.4219 7.23629 8.06956 7.47691C7.88206 7.47769 6.55393 7.43785 4.48831 8.26676C3.91331 8.53082 3.83987 8.48707 3.64846 8.48707C3.06956 8.48707 3.30784 6.80894 3.41877 6.59644C3.82581 6.09644 6.22034 5.16285 8.57034 5.17613C10.1416 5.03717 11.7045 5.52211 12.9211 6.52613C13.4157 7.07932 13.793 7.72701 14.0302 8.43008C14.2675 9.13315 14.3598 9.87702 14.3016 10.6168L14.3008 16.03ZM7.54924 18.5605C10.0828 18.5238 11.1555 17.0003 11.4 16.18C11.5922 15.3949 11.5602 14.898 11.5602 14.0394C10.8047 13.8582 9.71721 13.6605 8.46956 13.6589C7.28596 13.5699 5.12424 14.0988 5.20862 16.1793C5.11174 17.491 6.07737 18.6324 7.54924 18.5605ZM20.9024 20.3613C20.2883 20.4175 20.0024 19.9816 19.9117 19.5511L16.0211 6.68785C15.9453 6.47066 15.8953 6.24644 15.8711 6.01754C15.8568 5.92316 15.8805 5.82695 15.937 5.75005C15.9936 5.67314 16.0783 5.62183 16.1727 5.60738C16.1914 5.60426 16.0063 5.60738 17.911 5.60738C18.5969 5.53863 18.8203 6.07848 18.8914 6.41754L21.6821 17.4199L24.2727 6.41754C24.3141 6.16598 24.5024 5.55269 25.2727 5.61754H26.6133C26.7828 5.60348 27.4813 5.57848 27.6039 6.42769L30.2149 17.5707L33.0953 6.42769C33.1328 6.25738 33.3078 5.53941 34.086 5.61754H35.6266C35.693 5.60738 36.1071 5.55426 36.0367 6.28785C36.0032 6.43238 36.3032 5.45504 31.9157 19.5613C31.8258 19.9918 31.5391 20.4277 30.925 20.3714H29.4649C28.6102 20.4613 28.4875 19.6168 28.4742 19.5316L25.8836 8.81832L23.3227 19.5207C23.3102 19.6058 23.1875 20.4503 22.3321 20.3605H20.9024V20.3613ZM42.268 20.8011C41.8086 20.8019 39.618 20.7777 37.7867 19.841C37.6043 19.7637 37.449 19.6341 37.3403 19.4684C37.2317 19.3028 37.1747 19.1086 37.1766 18.9105V18.0707C37.1766 17.4105 37.661 17.5316 37.8664 17.6105C38.6508 17.9277 39.1539 18.1683 40.1172 18.3605C42.9805 18.9488 44.2399 18.1808 44.5485 18.0105C45.5758 17.4003 45.6571 16.0043 44.9586 15.28C44.1399 14.5933 43.7492 14.5675 40.8078 13.6394C40.4453 13.5386 37.3938 12.5761 37.3867 9.54879C37.3391 7.34254 39.3438 5.15972 42.818 5.17769C43.8078 5.17691 46.4453 5.50035 47.1594 6.39801C47.2649 6.56129 47.3172 6.75348 47.3094 6.94801V7.73785C47.3094 8.08473 47.1828 8.25816 46.9289 8.25816C46.3266 8.19097 45.2578 7.38551 43.0883 7.41832C42.55 7.39019 39.9719 7.48941 40.0875 9.3691C40.0539 10.8503 42.1664 11.4058 42.4078 11.4699C45.2563 12.3269 46.2086 12.4691 47.3391 13.7808C48.6782 15.5191 47.9563 17.5543 47.6789 18.1121C46.1883 21.041 42.3336 20.8027 42.268 20.8011ZM45.4086 28.9933C39.9375 33.0339 31.9953 35.1847 25.2141 35.1847C16.0641 35.2451 7.22253 31.8806 0.427367 25.7527C-0.0827888 25.2925 0.367211 24.6621 0.987524 25.0128C8.52538 29.3247 17.0598 31.5903 25.7438 31.5847C32.2287 31.5499 38.6429 30.2344 44.618 27.7136C45.5383 27.323 46.3188 28.323 45.4086 28.9933ZM47.6891 26.3925C46.9891 25.4925 43.0578 25.9722 41.2977 26.1824C40.7672 26.2425 40.6774 25.7824 41.1578 25.4425C44.2883 23.2418 49.4297 23.8722 50.0203 24.6121C50.6102 25.3519 49.8602 30.5035 46.9297 32.9644C46.4797 33.3449 46.0492 33.1441 46.2492 32.6441C46.9086 30.9839 48.3891 27.2933 47.6891 26.3925Z" fill="#A1AEE5"/>
</g>
</svg>
