<svg width="165" height="49" viewBox="0 0 165 49" fill="none" xmlns="http://www.w3.org/2000/svg">
<g id="svg1897490721_8929">
<path id="Vector" d="M48.3649 16.1211H55.283C59.1151 16.1211 61.1046 17.6924 61.1046 20.6428V20.7897C61.1592 21.6543 60.9017 22.5098 60.3789 23.2006C59.8562 23.8914 59.1028 24.3716 58.2559 24.554C59.2701 24.6432 60.2082 25.129 60.8664 25.9057C61.5246 26.6824 61.8499 27.6875 61.7715 28.7026V28.8043C61.7715 32.026 59.6576 33.7216 55.5995 33.7216H48.3649V16.1211ZM54.6386 23.3444C56.5603 23.3444 57.3177 22.6549 57.3177 21.0836V20.9819C57.3177 19.5123 56.4812 18.8454 54.616 18.8454H52.2535V23.367L54.6386 23.3444ZM54.9778 30.9521C56.9447 30.9521 57.8377 30.059 57.8377 28.4652V28.3634C57.8377 26.7357 56.9447 25.9105 54.7856 25.9105H52.2535V30.9634L54.9778 30.9521Z" fill="#A1AEE5"/>
<path id="Vector_2" d="M62.8117 30.1382C62.8117 27.1313 65.5586 26.0009 69.5037 26.0009H70.9506V25.4922C70.9506 23.9662 70.4871 23.1297 68.8593 23.1297C68.5958 23.0984 68.3287 23.1214 68.0745 23.1972C67.8202 23.273 67.5841 23.4001 67.3808 23.5706C67.1775 23.7411 67.0112 23.9514 66.8922 24.1885C66.7733 24.4257 66.7041 24.6847 66.689 24.9496H63.2977C63.5238 21.8975 65.9316 20.541 69.0854 20.541C72.2393 20.541 74.4662 21.8184 74.4662 25.3114V33.699H70.9958V32.1503C70.5603 32.764 69.9731 33.2542 69.2916 33.5732C68.61 33.8922 67.8574 34.029 67.1072 33.9703C64.7786 33.9703 62.8117 32.8399 62.8117 30.1382ZM70.9506 29.2V28.0696H69.5715C67.5028 28.0696 66.3046 28.5217 66.3046 29.8895C66.3046 30.8278 66.8698 31.4495 68.1698 31.4495C69.7411 31.4947 70.9506 30.6243 70.9506 29.2Z" fill="#A1AEE5"/>
<path id="Vector_3" d="M75.9694 29.6634H79.2928C79.4397 30.7938 80.0049 31.4947 81.5536 31.4947C82.9327 31.4947 83.577 30.9747 83.577 30.0817C83.577 29.1887 82.8083 28.8269 80.9658 28.5669C77.5746 28.047 76.2181 27.0635 76.2181 24.554C76.2181 22.0445 78.6824 20.541 81.3049 20.541C84.1648 20.541 86.3013 21.581 86.6178 24.5314H83.3509C83.1588 23.4688 82.5596 22.9827 81.3388 22.9827C80.118 22.9827 79.5189 23.5253 79.5189 24.3053C79.5189 25.0853 80.1293 25.4357 81.9944 25.707C85.2161 26.1705 86.9908 26.9844 86.9908 29.7426C86.9908 32.5008 84.9787 33.9703 81.5762 33.9703C78.1737 33.9703 76.0937 32.4442 75.9694 29.6634Z" fill="#A1AEE5"/>
<path id="Vector_4" d="M87.9065 27.4251V27.2329C87.8636 26.3495 88.0048 25.4668 88.3209 24.6408C88.637 23.8147 89.1212 23.0633 89.7429 22.4342C90.3646 21.8051 91.1101 21.312 91.9324 20.9861C92.7546 20.6601 93.6355 20.5086 94.5194 20.5409C97.8428 20.5409 100.793 22.4852 100.793 27.086V28.0694H91.5577C91.6482 30.2059 92.8125 31.4606 94.7455 31.4606C96.3959 31.4606 97.2098 30.7485 97.4358 29.6633H100.827C100.409 32.4441 98.1932 33.9928 94.6777 33.9928C90.7325 33.9702 87.9065 31.5398 87.9065 27.4251ZM97.3228 25.8764C97.2098 23.9321 96.215 23.0504 94.5194 23.0504C93.756 23.0468 93.021 23.3392 92.4687 23.8662C91.9164 24.3932 91.5899 25.1137 91.5577 25.8764H97.3228Z" fill="#A1AEE5"/>
<path id="Vector_5" d="M101.731 27.425V27.2328C101.688 26.3474 101.83 25.4628 102.148 24.6351C102.465 23.8075 102.951 23.055 103.575 22.4255C104.2 21.7961 104.948 21.3034 105.773 20.9789C106.598 20.6545 107.481 20.5053 108.367 20.5408C111.351 20.5408 114.098 21.8408 114.426 25.5372H111.035C111.012 25.2199 110.926 24.9104 110.782 24.6271C110.637 24.3437 110.437 24.0923 110.193 23.8877C109.95 23.6832 109.668 23.5297 109.364 23.4363C109.06 23.3429 108.74 23.3116 108.423 23.3442C106.581 23.3442 105.349 24.7233 105.349 27.1876V27.3798C105.349 29.9684 106.479 31.291 108.503 31.291C108.847 31.3108 109.192 31.2619 109.517 31.1472C109.842 31.0324 110.141 30.8542 110.397 30.6227C110.652 30.3913 110.859 30.1113 111.006 29.7991C111.152 29.4869 111.235 29.1486 111.249 28.8041H114.471C114.279 31.8562 112.063 33.9701 108.322 33.9701C104.58 33.9701 101.731 31.6301 101.731 27.425Z" fill="#A1AEE5"/>
<path id="Vector_6" d="M115.296 30.1382C115.296 27.1313 118.043 26.0009 121.977 26.0009H123.435V25.4922C123.435 23.9662 122.961 23.1296 121.344 23.1296C121.079 23.095 120.809 23.1155 120.552 23.1898C120.295 23.2641 120.057 23.3906 119.851 23.5614C119.645 23.7322 119.477 23.9437 119.356 24.1825C119.236 24.4214 119.166 24.6825 119.151 24.9496H115.76C115.986 21.8975 118.394 20.541 121.536 20.541C124.679 20.541 126.928 21.8184 126.928 25.3113V33.699H123.458V32.1503C123.023 32.764 122.435 33.2542 121.754 33.5732C121.072 33.8922 120.32 34.029 119.569 33.9703C117.309 33.9703 115.296 32.8398 115.296 30.1382ZM123.435 29.1999V28.0695H122.079C120.01 28.0695 118.801 28.5217 118.801 29.8895C118.801 30.8277 119.377 31.4494 120.677 31.4494C122.271 31.4947 123.481 30.6243 123.481 29.1999H123.435Z" fill="#A1AEE5"/>
<path id="Vector_7" d="M129.438 20.7897H132.998V22.7566C133.387 22.0577 133.958 21.478 134.651 21.0796C135.344 20.6813 136.133 20.4794 136.932 20.4957C137.695 20.4347 138.457 20.6219 139.105 21.0293C139.753 21.4367 140.252 22.0426 140.527 22.7566C141.002 22.0475 141.647 21.4689 142.403 21.0739C143.16 20.6789 144.003 20.4801 144.856 20.4957C147.242 20.4957 149.084 21.9992 149.084 25.413V33.6537H145.546V25.8539C145.546 24.2035 144.811 23.4687 143.522 23.4687C143.18 23.4538 142.838 23.513 142.52 23.6424C142.202 23.7717 141.916 23.9681 141.681 24.2181C141.446 24.4681 141.268 24.7659 141.158 25.0911C141.049 25.4163 141.011 25.7613 141.047 26.1026V33.6989H137.497V25.8539C137.497 24.2035 136.74 23.4687 135.485 23.4687C135.142 23.4521 134.798 23.5101 134.479 23.6387C134.16 23.7673 133.872 23.9634 133.636 24.2136C133.4 24.4638 133.22 24.7622 133.11 25.0883C133 25.4143 132.962 25.7604 132.998 26.1026V33.6989H129.438V20.7897Z" fill="#A1AEE5"/>
<path id="Vector_8" d="M151.526 20.7895H155.098V22.8129C155.524 22.1052 156.125 21.5197 156.844 21.1136C157.564 20.7075 158.376 20.4946 159.201 20.4956C162.355 20.4956 164.854 22.8355 164.854 27.0858V27.2893C164.854 31.5396 162.446 33.9248 159.201 33.9248C158.376 33.9587 157.558 33.7658 156.834 33.3673C156.111 32.9687 155.51 32.3797 155.098 31.664V38.0847H151.526V20.7895ZM161.191 27.1197C161.191 24.5085 159.914 23.2311 158.116 23.2311C156.319 23.2311 154.974 24.5311 154.974 27.1197V27.3119C154.974 29.8892 156.206 31.144 158.15 31.144C160.095 31.144 161.191 29.8327 161.191 27.3571V27.1197Z" fill="#A1AEE5"/>
<path id="Vector_9" fill-rule="evenodd" clip-rule="evenodd" d="M21.9361 9.97725C11.9054 9.97725 6.67436 18.4734 3.74547 26.7775C3.39142 27.7813 2.29063 28.3081 1.2868 27.954C0.568808 27.7008 0.0948848 27.0656 0.0127491 26.357C-0.0199508 26.0749 0.00944774 25.7812 0.110267 25.4954C3.0821 17.0695 9.15509 6.12256 21.9361 6.12256C28.6167 6.12256 33.3984 10.5422 36.491 15.8518C39.5917 21.1754 41.2449 27.7672 41.6174 33.0895C41.6442 33.472 41.5563 33.8539 41.3648 34.1862C39.5738 37.2951 36.5942 39.3212 33.1979 40.5621C29.8099 41.7999 25.8854 42.3056 21.9516 42.3069C18.6094 42.359 15.2952 41.6902 12.2347 40.3458C9.16941 38.9993 6.43095 37.0068 4.20648 34.5046C3.73326 33.9723 3.59217 33.2224 3.8396 32.5546L3.84105 32.5506L3.84381 32.5432L3.85324 32.5181L3.88736 32.4281C3.91678 32.3511 3.95944 32.2406 4.0144 32.1015C4.12424 31.8235 4.28367 31.4299 4.48523 30.9589C4.88659 30.0209 5.4632 28.7569 6.15586 27.4807C6.8394 26.2213 7.67994 24.8673 8.62517 23.8006C9.48688 22.8281 10.8263 21.6434 12.5406 21.6318L12.5537 21.6317C13.7651 21.6317 14.7602 22.1864 15.4765 22.7196C16.1985 23.2571 16.8542 23.9401 17.3797 24.4961C17.4399 24.5599 17.4985 24.6221 17.5555 24.6825C18.0449 25.2014 18.4191 25.5982 18.7747 25.8953C18.8146 25.9287 18.8513 25.9581 18.8848 25.9841C19.0005 25.8659 19.1384 25.7111 19.2972 25.5142C19.8621 24.8139 20.4966 23.8274 21.1106 22.7713C21.7165 21.7291 22.268 20.6792 22.6701 19.8851C22.8704 19.4894 23.0321 19.1603 23.1431 18.9314C23.1985 18.817 23.2413 18.7278 23.2697 18.668L23.3016 18.6009L23.3091 18.5849L23.3107 18.5815C23.7626 17.6178 24.9103 17.2023 25.874 17.6541C26.8378 18.1059 27.2529 19.2534 26.8011 20.2172L26.797 20.2261L26.787 20.2473L26.7499 20.3254C26.7178 20.3928 26.6712 20.4901 26.6116 20.6131C26.4924 20.8589 26.3208 21.2081 26.1091 21.6263C25.687 22.46 25.0989 23.5805 24.443 24.7087C23.7952 25.8229 23.0456 27.0068 22.2975 27.9343C21.9265 28.3942 21.5059 28.8543 21.0511 29.216C20.6491 29.5358 19.94 30.0081 19.0309 30.0081C17.8289 30.0081 16.8818 29.3369 16.3029 28.8532C15.7574 28.3973 15.2123 27.8178 14.7545 27.3311C14.6941 27.2668 14.6352 27.2042 14.578 27.1437C14.0352 26.5693 13.5916 26.1219 13.1747 25.8116C12.8094 25.5396 12.6228 25.4949 12.5693 25.4878C12.5693 25.4878 12.5654 25.4892 12.562 25.4904C12.5031 25.5112 12.1491 25.636 11.5102 26.357C10.8478 27.1046 10.17 28.1654 9.54373 29.3194C8.92652 30.4566 8.40169 31.6046 8.02907 32.4754C7.98106 32.5876 7.93571 32.6948 7.89316 32.7965C9.58942 34.4867 11.5864 35.8508 13.785 36.8166C16.3423 37.9399 19.1119 38.498 21.9047 38.4525L21.9361 38.4522C25.5821 38.4522 29.0333 37.9798 31.8751 36.9415C34.4894 35.9863 36.4838 34.5941 37.7235 32.7459C37.3034 28.0095 35.7946 22.3151 33.1601 17.7919C30.4028 13.0579 26.6613 9.97725 21.9361 9.97725ZM18.568 26.258C18.568 26.258 18.5764 26.2516 18.5926 26.2433C18.576 26.2546 18.568 26.258 18.568 26.258Z" fill="#A1AEE5"/>
</g>
</svg>
