<svg width="185" height="118" viewBox="0 0 185 118" fill="none" xmlns="http://www.w3.org/2000/svg">
<g id="svg584519625_3512" clip-path="url(#clip0_5_834)">
<path id="Vector" d="M187.666 -17.4766C173.002 -29.8765 155.404 -36.0765 136.829 -37.1099L133.896 -34.0099C150.516 -29.8765 165.181 -21.6099 178.868 -10.2432C162.248 -19.5432 143.673 -25.7432 124.12 -27.8099C118.254 -28.8432 113.366 -28.8432 107.5 -28.8432C101.634 -28.8432 96.746 -28.8432 90.8802 -27.8099C71.3274 -25.7432 52.7523 -19.5432 36.1325 -10.2432C49.8194 -21.6099 64.4839 -29.8765 81.1038 -34.0099L78.1709 -37.1099C59.5958 -36.0765 41.9983 -29.8765 27.3337 -17.4766C10.7139 15.5901 1.91514 52.7901 0.9375 91.0231C15.6021 107.557 36.1325 117.89 57.6405 117.89C57.6405 117.89 64.484 109.623 69.3721 102.39C56.6628 99.2901 44.9312 92.0571 37.1101 80.6901C43.9536 84.8231 50.797 88.9571 57.6405 92.0571C66.4392 96.1901 75.238 98.2571 84.0367 100.323C91.8578 101.357 99.6789 102.39 107.5 102.39C115.321 102.39 123.142 101.357 130.963 100.323C139.762 98.2571 148.561 96.1901 157.36 92.0571C164.203 88.9571 171.046 84.8231 177.89 80.6901C170.069 92.0571 158.337 99.2901 145.628 102.39C150.516 109.623 157.36 117.89 157.36 117.89C178.868 117.89 199.398 107.557 214.062 91.0231C213.085 52.7901 204.286 15.5901 187.666 -17.4766ZM75.238 72.4231C65.4616 72.4231 56.6628 63.1231 56.6628 51.7568C56.6628 40.3901 65.4616 31.0901 75.238 31.0901C85.0143 31.0901 93.8131 40.3901 93.8131 51.7568C93.8131 63.1231 85.0143 72.4231 75.238 72.4231ZM139.762 72.4231C129.986 72.4231 121.187 63.1231 121.187 51.7568C121.187 40.3901 129.986 31.0901 139.762 31.0901C149.538 31.0901 158.337 40.3901 158.337 51.7568C158.337 63.1231 149.538 72.4231 139.762 72.4231Z" fill="#A1AEE5" fill-opacity="0.14"/>
<path id="Vector_2" d="M178.623 -9.80703L179.187 -10.628C165.683 -21.8426 151.213 -30.064 134.845 -34.2855L137.033 -36.5977C155.394 -35.5331 172.77 -29.3875 187.265 -17.1607C203.791 15.7552 212.557 52.7777 213.558 90.839C199.038 107.134 178.792 117.315 157.595 117.39C157.553 117.338 157.502 117.276 157.443 117.204C157.247 116.964 156.961 116.614 156.603 116.171C155.886 115.285 154.88 114.027 153.721 112.545C151.528 109.739 148.794 106.131 146.444 102.701C158.989 99.484 170.546 92.245 178.302 80.973L177.631 80.262C170.783 84.399 163.965 88.516 157.153 91.601L157.147 91.604C148.411 95.708 139.67 97.765 130.873 99.831C123.055 100.864 115.274 101.89 107.5 101.89C99.7256 101.89 91.9454 100.864 84.1269 99.831C75.3304 97.765 66.5896 95.708 57.8532 91.604L57.8469 91.601C51.0352 88.516 44.2176 84.399 37.3687 80.262L36.6983 80.973C44.454 92.245 56.0114 99.484 68.5558 102.701C66.2064 106.131 63.4721 109.739 61.2794 112.545C60.1204 114.027 59.114 115.285 58.3974 116.171C58.0392 116.614 57.7534 116.964 57.5573 117.204C57.4983 117.276 57.4473 117.338 57.405 117.39C36.2079 117.315 15.9626 107.134 1.4425 90.839C2.44267 52.7777 11.2087 15.7552 27.7347 -17.1607C42.2305 -29.3875 59.6063 -35.5331 77.9674 -36.5977L80.155 -34.2855C63.7875 -30.064 49.317 -21.8426 35.8131 -10.628L36.3767 -9.80703C52.9409 -19.0759 71.4512 -25.2536 90.9328 -27.3128L90.95 -27.3146L90.967 -27.3176C96.7842 -28.3424 101.631 -28.3434 107.5 -28.3434C113.369 -28.3434 118.216 -28.3424 124.033 -27.3176L124.05 -27.3146L124.067 -27.3128C143.549 -25.2536 162.059 -19.0759 178.623 -9.80703ZM56.1629 51.7567C56.1629 63.356 65.1439 72.923 75.2381 72.923C85.3322 72.923 94.3132 63.356 94.3132 51.7567C94.3132 40.1574 85.3322 30.59 75.2381 30.59C65.1439 30.59 56.1629 40.1574 56.1629 51.7567ZM120.687 51.7567C120.687 63.356 129.668 72.923 139.762 72.923C149.856 72.923 158.837 63.356 158.837 51.7567C158.837 40.1574 149.856 30.59 139.762 30.59C129.668 30.59 120.687 40.1574 120.687 51.7567Z" stroke="#A1AEE5" stroke-opacity="0.2"/>
</g>
<defs>
<clipPath id="clip0_5_834">
<rect width="215" height="155" fill="white" transform="translate(0 -37.1099)"/>
</clipPath>
</defs>
</svg>
