<svg width="135" height="49" viewBox="0 0 135 49" fill="none" xmlns="http://www.w3.org/2000/svg">
<g id="svg-1312062631_3634">
<path id="Vector" d="M0 2.05029H29.1427V16.6216H14.5713L0 2.05029ZM0 16.6216H14.5713L29.1427 31.193H0V16.6216ZM0 31.193H14.5713V45.7643L0 31.193Z" fill="#A1AEE5"/>
<path id="Vector_2" d="M45.5859 13.5457H57.3659V17.289H50.0446V22.491H57.3659V26.1517H50.0446V32.8123H45.5859V13.5457ZM59.7879 19.5457H63.9993V22.3257C64.2193 21.3703 64.6693 20.637 65.3479 20.1237C66.0439 19.591 66.8166 19.3257 67.6599 19.3257C68.1006 19.3257 68.4679 19.363 68.7606 19.4357V23.3443C68.3406 23.2937 67.9179 23.2663 67.4946 23.2617C66.3386 23.2617 65.4679 23.637 64.8799 24.3897C64.2939 25.1237 63.9993 26.2243 63.9993 27.693V32.8123H59.7899V19.5457H59.7879ZM75.4086 33.1703C74.1246 33.1703 73.0046 32.867 72.0506 32.2617C71.1146 31.6563 70.3706 30.797 69.9039 29.7843C69.4086 28.721 69.1593 27.5177 69.1593 26.179C69.1593 24.8577 69.4179 23.6643 69.9313 22.601C70.4126 21.5737 71.1766 20.705 72.1333 20.0963C73.1046 19.491 74.2153 19.1877 75.4639 19.1877C76.3993 19.1877 77.2353 19.3903 77.9686 19.7937C78.7019 20.1983 79.2526 20.749 79.6199 21.445V19.5457H83.8033V32.8123H79.6199V30.9403C79.2526 31.601 78.6839 32.1417 77.9133 32.5643C77.1426 32.973 76.2813 33.181 75.4086 33.1703ZM76.6199 29.6743C77.6286 29.6743 78.4086 29.3443 78.9593 28.6837C79.5099 28.023 79.7853 27.1877 79.7853 26.179C79.7853 25.1883 79.5099 24.3623 78.9593 23.7017C78.4086 23.041 77.6286 22.711 76.6199 22.711C75.6646 22.711 74.8953 23.0317 74.3079 23.6743C73.7393 24.317 73.4546 25.151 73.4546 26.179C73.4546 27.207 73.7393 28.0503 74.3079 28.711C74.8953 29.3537 75.6659 29.6743 76.6199 29.6743ZM86.7486 19.5457H90.9599V21.4723C91.2546 20.7923 91.7306 20.2417 92.3906 19.821C93.0706 19.4003 93.8593 19.1877 94.7579 19.1877C96.8499 19.1877 98.2359 20.0037 98.9139 21.6377C99.2873 20.897 99.8713 20.2843 100.593 19.8763C101.365 19.4117 102.252 19.1737 103.153 19.1877C106.291 19.1877 107.859 20.985 107.859 24.5823V32.8123H103.621V25.353C103.621 24.455 103.455 23.7943 103.125 23.3717C102.795 22.9503 102.299 22.7383 101.639 22.7383C100.923 22.7383 100.373 22.9863 99.9873 23.4817C99.6019 23.959 99.4093 24.793 99.4093 25.9863V32.8123H95.1706V25.3257C95.1706 24.427 95.0059 23.775 94.6753 23.3717C94.3646 22.9503 93.8773 22.7383 93.2179 22.7383C92.4833 22.7383 91.9233 22.9863 91.5379 23.4817C91.1526 23.959 90.9599 24.793 90.9599 25.9863V32.8123H86.7499V19.5457H86.7486ZM123.679 25.491C123.679 26.059 123.642 26.6743 123.567 27.335H113.771C113.808 28.1977 114.101 28.857 114.651 29.317C115.202 29.775 115.947 30.005 116.881 30.005C118.184 30.005 119.01 29.6097 119.358 28.821H123.487C123.284 30.1243 122.569 31.1783 121.339 31.9863C120.129 32.775 118.642 33.1703 116.881 33.1703C114.606 33.1703 112.817 32.555 111.513 31.3257C110.229 30.0957 109.587 28.381 109.587 26.179C109.587 24.7477 109.88 23.509 110.467 22.463C111.035 21.4183 111.909 20.573 112.972 20.041C114.055 19.473 115.312 19.1877 116.745 19.1877C118.101 19.1877 119.303 19.4537 120.349 19.9863C121.413 20.519 122.23 21.2617 122.798 22.2157C123.386 23.171 123.679 24.2623 123.679 25.491ZM119.521 24.7203C119.503 23.8397 119.256 23.169 118.778 22.711C118.302 22.253 117.613 22.023 116.714 22.023C115.815 22.023 115.1 22.2703 114.567 22.7663C114.054 23.2437 113.788 23.8943 113.769 24.7203H119.521ZM125.536 19.5457H129.747V22.3257C129.967 21.3703 130.417 20.637 131.096 20.1237C131.755 19.605 132.569 19.3237 133.408 19.3257C133.848 19.3257 134.216 19.363 134.509 19.4357V23.3443C134.089 23.2937 133.666 23.2663 133.243 23.2617C132.087 23.2617 131.216 23.637 130.628 24.3897C130.04 25.1237 129.747 26.2243 129.747 27.693V32.8123H125.536V19.5457Z" fill="#A1AEE5"/>
</g>
</svg>
