<svg width="35" height="28" viewBox="0 0 35 28" fill="none" xmlns="http://www.w3.org/2000/svg">
<g id="Frame 7">
<path id="Vector" d="M21.7914 7.71333H22.8314L25.762 4.75325L25.9511 3.51194C23.6822 1.41124 20.5625 0.169922 17.1591 0.169922C11.1087 0.169922 5.90909 4.37131 4.39648 10.005C4.6801 9.81402 5.4364 9.90951 5.4364 9.90951L11.2977 8.95465C11.2977 8.95465 11.5814 8.47721 11.7704 8.47721C14.4175 5.61263 18.7662 5.32617 21.7914 7.71333Z" fill="#A1AEE5"/>
<path id="Vector_2" d="M30.0163 10.005C29.26 7.52232 27.9364 5.23065 25.9512 3.5119L21.7915 7.71329C23.5877 9.14558 24.5331 11.2463 24.5331 13.5379V14.3018C26.5184 14.3018 28.2201 15.9251 28.2201 18.0258C28.2201 20.031 26.6129 21.6543 24.5331 21.6543H17.1591L16.4028 22.4182V26.906L17.1591 27.6699H24.5331C29.8272 27.6699 34.0814 23.373 34.0814 18.0258C34.0814 14.7793 32.4743 11.8192 29.9217 10.1004L30.0163 10.005Z" fill="#A1AEE5"/>
<path id="Vector_3" d="M9.8796 27.5743H17.2536V21.6542H9.8796C9.31237 21.6542 8.83968 21.5587 8.36699 21.3677L7.32708 21.6542L4.39641 24.6143L4.11279 25.5691C5.71994 26.9059 7.79977 27.5743 9.8796 27.5743Z" fill="#A1AEE5"/>
<path id="Vector_4" d="M9.87962 8.28638C4.5855 8.28638 0.331299 12.5833 0.331299 17.9305C0.331299 20.986 1.74937 23.8506 4.11281 25.6649L8.36701 21.368C7.04348 20.6996 6.19264 19.4583 6.19264 17.9305C6.19264 15.9253 7.79979 14.2065 9.87962 14.2065C11.2977 14.302 12.6212 15.1614 13.1884 16.4027L17.4426 12.1058C15.741 9.81415 12.9048 8.28638 9.87962 8.28638Z" fill="#A1AEE5"/>
</g>
</svg>
