<svg width="104" height="49" viewBox="0 0 104 49" fill="none" xmlns="http://www.w3.org/2000/svg">
<g id="svg1473165065_4511">
<path id="Vector" d="M7.09192 30.9292H0.0587769V34.4459H7.09192V30.9292Z" fill="#A1AEE5"/>
<path id="Vector_2" d="M17.6385 30.9292H10.6097V34.4459H17.6385V30.9292Z" fill="#A1AEE5"/>
<path id="Vector_3" d="M17.6403 23.8962H0.0546875V27.4129H17.6403V23.8962Z" fill="#A1AEE5"/>
<path id="Vector_4" d="M10.6095 16.8638H0.0587769V20.3803H10.6095V16.8638Z" fill="#A1AEE5"/>
<path id="Vector_5" d="M17.6421 16.8638H14.1256V20.3803H17.6421V16.8638Z" fill="#A1AEE5"/>
<path id="Vector_6" d="M68.693 16.8438C63.0453 16.8438 60.1285 20.8376 60.1285 25.7644C60.1285 30.6913 62.9734 34.6856 68.693 34.6856C74.4126 34.6856 77.2576 30.6913 77.2576 25.7644C77.2578 20.8376 74.3405 16.8438 68.693 16.8438ZM72.9658 25.7803C72.9618 28.9485 71.8942 31.5145 68.693 31.5145C65.4918 31.5145 64.4241 28.9487 64.4207 25.7803V25.7645C64.4241 22.5966 65.492 20.0308 68.6933 20.0308C71.8942 20.0308 72.9618 22.5966 72.9658 25.7645V25.7726C72.9658 25.7752 72.9658 25.7777 72.9658 25.7803Z" fill="#A1AEE5"/>
<path id="Vector_7" d="M43.4051 34.4457V9.78144C43.4051 9.78144 46.6582 9.31934 46.9105 9.2854C47.1962 9.2468 47.5755 9.45023 47.5755 9.85243V18.9955C48.2506 18.3538 48.994 17.8364 49.8042 17.4422C50.615 17.0484 51.5659 16.8512 52.6582 16.8512C53.604 16.8512 54.4419 17.0116 55.1735 17.3326C55.9056 17.6529 56.5163 18.1037 57.0059 18.683C57.4956 19.2631 57.8671 19.9553 58.1205 20.7601C58.3736 21.565 58.5003 22.4514 58.5003 23.4196V34.4455H54.3296V23.4196C54.3296 22.3616 54.0847 21.5425 53.5951 20.9624C53.1052 20.383 52.3707 20.093 51.3911 20.093C50.6707 20.093 49.9957 20.2563 49.3656 20.5831C48.7349 20.9096 48.1384 21.3538 47.5755 21.917V34.4457H43.4051Z" fill="#A1AEE5"/>
<path id="Vector_8" d="M99.0839 34.6831C96.2139 34.6831 94.4152 33.0129 94.4152 29.8968V20.6619H91.1807C91.1807 20.6619 91.8682 18.2842 91.9226 18.0969C91.9771 17.9099 92.1193 17.7089 92.4049 17.6692C92.6904 17.6295 94.4112 17.3894 94.4112 17.3894L95.2061 12.3327C95.2061 12.3327 97.5414 12.0035 97.9117 11.9483C98.2613 11.8959 98.5783 12.1477 98.5783 12.5286V17.3894H102.669V20.6619H98.5783V29.7724C98.5783 31.0163 99.3357 31.4917 100.062 31.4917C100.505 31.4917 101.113 31.2561 101.566 31.0458C101.847 30.9162 102.281 31.0123 102.393 31.4034C102.492 31.7499 103.019 33.5892 103.019 33.5892C102.564 33.8829 101.126 34.6831 99.0839 34.6831Z" fill="#A1AEE5"/>
<path id="Vector_9" d="M88.8898 20.7172C88.077 20.4532 86.5492 20.0306 85.0959 20.0306C83.615 20.0306 82.4499 20.5422 82.4499 21.7734C82.4499 23.3112 84.961 23.7589 86.6798 24.3859C87.829 24.8049 90.9106 25.622 90.9106 28.9363C90.9106 32.9624 87.5672 34.6837 84.0006 34.6837C80.4336 34.6837 78.3263 33.357 78.3263 33.357C78.3263 33.357 78.8795 31.4026 78.9916 31.0168C79.093 30.6696 79.4965 30.5478 79.7536 30.6465C80.6716 31.0004 82.3292 31.4922 84.2029 31.4922C86.0999 31.4922 87.0177 30.913 87.0177 29.6782C87.0177 28.0348 84.4561 27.5325 82.7618 26.9981C81.5947 26.6303 78.5055 25.7724 78.5055 22.1273C78.5055 18.5365 81.6586 16.8518 85.0284 16.8518C87.8809 16.8518 89.2801 17.4483 90.3252 17.9808C90.3252 17.9808 89.7428 20.0104 89.6563 20.3128C89.5543 20.6722 89.2594 20.837 88.8898 20.7172Z" fill="#A1AEE5"/>
<path id="Vector_10" d="M41.7777 17.4461C41.7777 17.0577 41.4458 16.8354 41.1293 16.8716C39.7296 17.032 38.7311 17.6906 38.0851 18.3038C36.8166 17.3099 35.0558 16.8354 33.0796 16.8354C29.1175 16.8354 26.0219 18.7477 26.0219 22.9175C26.0219 25.3112 27.0408 26.9606 28.6589 27.9316C27.4572 28.5004 26.6568 29.7075 26.6568 30.8941C26.6568 32.8792 28.225 33.5008 28.225 33.5008C28.225 33.5008 25.483 34.8317 25.483 37.4942C25.483 40.9028 28.6197 42.2808 32.4525 42.2808C37.9773 42.2808 41.7784 39.9989 41.7784 35.8089C41.7784 33.2302 39.8051 31.8066 35.5048 31.6373C32.953 31.5366 31.3 31.4448 30.8905 31.3092C30.3494 31.1295 30.0834 30.6963 30.0834 30.218C30.0834 29.69 30.5171 29.1873 31.2008 28.8421C31.7971 28.9477 32.4265 28.9998 33.0801 28.9998C37.0455 28.9998 40.1381 27.0931 40.1381 22.9177C40.1381 21.9052 39.9553 21.0263 39.6229 20.2753C40.2055 19.9645 40.9223 19.7458 41.7782 19.7458C41.7782 19.7458 41.7777 17.8004 41.7777 17.4461ZM30.8587 34.4676C30.8587 34.4676 32.9394 34.5464 35.0186 34.6427C37.3544 34.7507 38.0822 35.2541 38.0822 36.4636C38.0822 37.9413 36.0523 39.3786 33.2156 39.3786C30.5229 39.3786 29.1778 38.4417 29.1778 36.882C29.1778 35.987 29.6504 34.9859 30.8587 34.4676ZM33.0872 26.0892C31.2101 26.0892 29.7457 25.0922 29.7457 22.9175C29.7457 20.7425 31.2115 19.7456 33.0872 19.7456C34.9631 19.7456 36.4286 20.7399 36.4286 22.9175C36.4286 25.0951 34.9649 26.0892 33.0872 26.0892Z" fill="#A1AEE5"/>
</g>
</svg>
