<svg width="183" height="31" viewBox="0 0 183 31" fill="none" xmlns="http://www.w3.org/2000/svg">
<path d="M21.7914 7.71333H22.8314L25.762 4.75325L25.9511 3.51194C23.6822 1.41124 20.5625 0.169922 17.1591 0.169922C11.1087 0.169922 5.90909 4.37131 4.39648 10.005C4.6801 9.81402 5.4364 9.90951 5.4364 9.90951L11.2977 8.95465C11.2977 8.95465 11.5814 8.47721 11.7704 8.47721C14.4175 5.61263 18.7662 5.32617 21.7914 7.71333Z" fill="#A1AEE5"/>
<path d="M30.0163 10.005C29.26 7.52232 27.9364 5.23065 25.9512 3.5119L21.7915 7.71329C23.5877 9.14558 24.5331 11.2463 24.5331 13.5379V14.3018C26.5184 14.3018 28.2201 15.9251 28.2201 18.0258C28.2201 20.031 26.6129 21.6543 24.5331 21.6543H17.1591L16.4028 22.4182V26.906L17.1591 27.6699H24.5331C29.8272 27.6699 34.0814 23.373 34.0814 18.0258C34.0814 14.7793 32.4743 11.8192 29.9217 10.1004L30.0163 10.005Z" fill="#A1AEE5"/>
<path d="M9.8796 27.5743H17.2536V21.6542H9.8796C9.31237 21.6542 8.83968 21.5587 8.36699 21.3677L7.32708 21.6542L4.39641 24.6143L4.11279 25.5691C5.71994 26.9059 7.79977 27.5743 9.8796 27.5743Z" fill="#A1AEE5"/>
<path d="M9.87962 8.28638C4.5855 8.28638 0.331299 12.5833 0.331299 17.9305C0.331299 20.986 1.74937 23.8506 4.11281 25.6649L8.36701 21.368C7.04348 20.6996 6.19264 19.4583 6.19264 17.9305C6.19264 15.9253 7.79979 14.2065 9.87962 14.2065C11.2977 14.302 12.6212 15.1614 13.1884 16.4027L17.4426 12.1058C15.741 9.81415 12.9048 8.28638 9.87962 8.28638Z" fill="#A1AEE5"/>
<path d="M52.5813 24.4199C49.9563 24.4199 47.7063 23.4199 45.7063 21.5449C43.7063 19.6699 42.8313 17.5449 42.8313 14.7949C42.8313 12.0449 43.8313 9.91992 45.7063 8.04492C47.5813 6.16992 49.9563 5.16992 52.5813 5.16992C54.9563 5.29492 57.3313 6.16992 59.0813 7.91992L57.2063 9.79492C55.9563 8.54492 54.3313 7.91992 52.4563 7.91992C50.5813 7.91992 48.9563 8.54492 47.5813 9.91992C46.3313 11.1699 45.5813 13.0449 45.7063 14.7949C45.7063 16.6699 46.3313 18.4199 47.7063 19.6699C48.9563 21.1699 50.7063 21.7949 52.4563 21.7949C54.4563 21.7949 55.9563 21.1699 57.3313 19.9199C58.0813 19.1699 58.5813 18.0449 58.7063 16.6699H52.5813V14.0449H61.3313C61.4563 14.5449 61.4563 15.0449 61.4563 15.6699C61.4563 18.2949 60.7063 20.2949 59.2063 21.7949C57.4563 23.5449 55.3313 24.5449 52.5813 24.5449V24.4199ZM73.0813 22.6699C71.8313 23.7949 70.4563 24.4199 68.7063 24.4199C66.9563 24.4199 65.4563 23.7949 64.3313 22.6699C63.2063 21.5449 62.5813 20.0449 62.5813 18.2949C62.5813 16.5449 63.2063 15.0449 64.3313 13.9199C65.4563 12.7949 66.9563 12.1699 68.7063 12.1699C70.4563 12.1699 71.9563 12.7949 73.0813 13.9199C74.2063 15.0449 74.8313 16.5449 74.8313 18.2949C74.8313 20.0449 74.2063 21.5449 73.0813 22.6699ZM66.2063 20.9199C66.8313 21.6699 67.7063 22.0449 68.5813 22.0449C69.5813 22.0449 70.3313 21.6699 71.0813 20.9199C71.8313 20.1699 72.0813 19.2949 72.0813 18.2949C72.0813 17.1699 71.7063 16.2949 71.0813 15.5449C70.4563 14.7949 69.5813 14.5449 68.5813 14.5449C67.7063 14.5449 66.7063 14.9199 66.0813 15.5449C65.4563 16.2949 65.0813 17.1699 65.0813 18.2949C65.0813 19.4199 65.4563 20.2949 66.0813 20.9199H66.2063ZM86.5813 22.6699C85.3313 23.7949 83.9563 24.4199 82.2063 24.4199C80.4563 24.4199 78.9563 23.7949 77.8313 22.6699C76.7063 21.5449 76.0813 20.0449 76.0813 18.2949C76.0813 16.5449 76.7063 15.0449 77.8313 13.9199C78.9563 12.7949 80.4563 12.1699 82.2063 12.1699C83.9563 12.1699 85.4563 12.7949 86.5813 13.9199C87.7063 15.0449 88.3313 16.5449 88.3313 18.2949C88.3313 20.0449 87.7063 21.5449 86.5813 22.6699ZM79.7063 20.9199C80.3313 21.6699 81.2063 22.0449 82.0813 22.0449C83.0813 22.0449 83.8313 21.6699 84.5813 20.9199C85.3313 20.1699 85.5813 19.2949 85.5813 18.2949C85.5813 17.1699 85.2063 16.2949 84.5813 15.5449C83.9563 14.7949 83.0813 14.5449 82.0813 14.5449C81.2063 14.5449 80.2063 14.9199 79.5813 15.5449C78.9563 16.2949 78.5813 17.1699 78.5813 18.2949C78.5813 19.4199 78.9563 20.2949 79.5813 20.9199H79.7063ZM95.4563 29.9199C94.0813 29.9199 92.9563 29.5449 91.9563 28.7949C90.9563 28.0449 90.3313 27.1699 89.9563 26.2949L92.3313 25.2949C92.5813 25.9199 92.9563 26.4199 93.4563 26.7949C93.9563 27.1699 94.5813 27.4199 95.4563 27.4199C96.4563 27.4199 97.3313 27.0449 97.8313 26.5449C98.3313 26.0449 98.7063 25.0449 98.7063 23.7949V22.9199H98.5813C97.8313 23.7949 96.7063 24.2949 95.3313 24.2949C93.7063 24.2949 92.3313 23.6699 91.2063 22.5449C89.9563 21.5449 89.3313 19.9199 89.4563 18.2949C89.3313 16.6699 89.9563 15.0449 91.2063 13.9199C92.3313 12.6699 93.7063 12.1699 95.3313 12.1699C96.0813 12.1699 96.7063 12.2949 97.2063 12.5449C97.7063 12.7949 98.2063 13.1699 98.5813 13.5449H98.7063V12.5449H101.331V23.6699C101.331 25.7949 100.831 27.4199 99.7063 28.5449C98.5813 29.5449 97.2063 30.1699 95.4563 30.1699V29.9199ZM95.5813 21.9199C96.4563 22.0449 97.3313 21.6699 97.8313 20.9199C98.4563 20.1699 98.8313 19.2949 98.8313 18.2949C98.8313 17.1699 98.4563 16.2949 97.8313 15.5449C97.3313 14.9199 96.4563 14.5449 95.5813 14.5449C94.5813 14.5449 93.8313 14.9199 93.2063 15.6699C92.5813 16.4199 92.2063 17.2949 92.2063 18.4199C92.2063 19.4199 92.5813 20.4199 93.2063 21.0449C93.8313 21.6699 94.7063 22.1699 95.5813 22.1699V21.9199ZM105.831 5.79492V23.9199H103.081V5.79492H105.831ZM113.206 24.2949C111.456 24.2949 109.956 23.6699 108.831 22.5449C107.706 21.4199 107.081 19.9199 107.081 18.1699C107.081 16.4199 107.706 14.9199 108.831 13.6699C109.831 12.6699 111.331 12.0449 112.956 12.0449C113.706 12.0449 114.456 12.1699 115.081 12.4199C115.581 12.7949 116.081 13.0449 116.581 13.5449C116.956 13.9199 117.331 14.2949 117.581 14.7949C117.831 15.1699 118.081 15.5449 118.206 16.0449L118.456 16.7949L110.206 20.1699C110.831 21.4199 111.831 22.0449 113.206 22.0449C114.456 22.0449 115.456 21.4199 116.206 20.2949L118.331 21.6699C117.831 22.4199 117.206 23.0449 116.331 23.5449C115.456 24.0449 114.456 24.4199 113.206 24.4199V24.2949ZM109.831 17.9199L115.331 15.6699C115.206 15.2949 114.831 14.9199 114.456 14.6699C113.956 14.5449 113.456 14.4199 112.956 14.4199C112.206 14.4199 111.456 14.7949 110.706 15.4199C109.956 16.0449 109.706 16.9199 109.706 18.0449L109.831 17.9199ZM132.706 24.2949C130.206 24.2949 128.206 23.4199 126.456 21.7949C124.706 20.1699 123.956 18.0449 123.956 15.5449C123.956 13.0449 124.831 10.9199 126.456 9.29492C128.081 7.66992 130.206 6.79492 132.706 6.79492C135.206 6.79492 137.331 7.66992 138.831 9.54492L137.331 11.0449C136.206 9.66992 134.581 8.91992 132.706 8.91992C130.831 8.91992 129.331 9.54492 128.081 10.7949C126.831 12.0449 126.206 13.6699 126.206 15.6699C126.206 17.6699 126.831 19.2949 128.081 20.5449C129.331 21.7949 130.831 22.4199 132.706 22.4199C134.706 22.4199 136.456 21.6699 137.831 20.0449L139.331 21.5449C138.581 22.4199 137.581 23.1699 136.456 23.6699C135.206 24.1699 133.956 24.2949 132.706 24.2949ZM143.456 23.9199H141.331V7.29492H143.456V23.9199ZM146.956 13.7949C148.081 12.6699 149.456 12.0449 151.206 12.0449C152.956 12.0449 154.331 12.6699 155.456 13.7949C156.581 14.9199 157.081 16.4199 157.081 18.1699C157.081 19.9199 156.581 21.4199 155.456 22.5449C154.331 23.6699 152.956 24.2949 151.206 24.2949C149.456 24.2949 148.081 23.6699 146.956 22.5449C145.831 21.4199 145.331 19.9199 145.331 18.1699C145.331 16.4199 145.831 14.9199 146.956 13.7949ZM148.581 21.1699C149.331 21.9199 150.206 22.2949 151.206 22.2949C152.206 22.2949 153.081 21.9199 153.831 21.1699C154.581 20.4199 154.956 19.4199 154.956 18.1699C154.956 16.9199 154.581 15.9199 153.831 15.1699C153.081 14.4199 152.206 14.0449 151.206 14.0449C150.206 14.0449 149.331 14.4199 148.581 15.1699C147.831 15.9199 147.456 16.9199 147.456 18.1699C147.456 19.4199 147.831 20.4199 148.581 21.1699ZM168.956 23.9199H166.956V22.2949H166.831C166.456 22.7949 165.956 23.2949 165.331 23.6699C164.706 24.0449 163.956 24.2949 163.206 24.2949C161.831 24.2949 160.706 23.9199 159.956 23.0449C159.206 22.1699 158.831 21.0449 158.831 19.5449V12.5449H160.956V19.1699C160.956 21.2949 161.956 22.4199 163.831 22.4199C164.581 22.4199 165.456 22.0449 165.956 21.4199C166.456 20.6699 166.706 19.7949 166.706 18.9199V12.6699H168.831V24.1699L168.956 23.9199ZM176.206 24.0449C174.706 24.0449 173.456 23.6699 172.331 22.5449C171.206 21.4199 170.706 19.9199 170.706 18.1699C170.706 16.4199 171.206 15.0449 172.331 13.7949C173.456 12.5449 174.706 12.0449 176.206 12.0449C177.081 12.0449 177.831 12.2949 178.581 12.5449C179.331 12.7949 179.831 13.4199 180.081 13.9199H180.206L180.081 12.2949V7.04492H182.206V23.7949H180.206V22.1699H180.081C179.706 22.6699 179.206 23.1699 178.581 23.5449C177.831 23.9199 177.081 24.0449 176.206 24.0449ZM176.581 22.2949C177.456 22.4199 178.456 22.0449 179.081 21.2949C179.831 20.5449 180.081 19.5449 180.081 18.2949C180.081 17.0449 179.706 16.0449 179.081 15.2949C178.456 14.6699 177.456 14.1699 176.581 14.1699C175.581 14.1699 174.706 14.5449 173.956 15.2949C173.206 16.0449 172.831 17.0449 172.831 18.2949C172.831 19.5449 173.206 20.5449 173.956 21.2949C174.581 22.0449 175.581 22.2949 176.581 22.2949Z" fill="#A1AEE5"/>
</svg>
