<svg width="28" height="29" viewBox="0 0 28 29" fill="none" xmlns="http://www.w3.org/2000/svg">
<g id="svg-745753742_918">
<path id="Vector" d="M5.83916 10.8934C6.14858 10.8934 6.44532 11.0163 6.66412 11.2351C6.88291 11.4539 7.00583 11.7507 7.00583 12.0601C8.83882 12.0574 10.619 12.6741 12.0575 13.8101H14.5892C16.1432 13.8101 17.5397 14.4844 18.501 15.5578L22.1725 15.5601C23.2753 15.5598 24.3556 15.8721 25.2881 16.4608C26.2206 17.0495 26.9672 17.8905 27.4412 18.8863C24.682 22.5263 20.2148 24.8934 15.1725 24.8934C11.9175 24.8934 9.16416 24.1888 6.93466 22.9591C6.85304 23.1843 6.70394 23.3789 6.50768 23.5163C6.31142 23.6537 6.07756 23.7272 5.83799 23.7268H2.33799C2.02857 23.7268 1.73183 23.6038 1.51303 23.385C1.29424 23.1663 1.17133 22.8695 1.17133 22.5601V12.0601C1.17133 11.7507 1.29424 11.4539 1.51303 11.2351C1.73183 11.0163 2.02857 10.8934 2.33799 10.8934H5.83799H5.83916ZM7.00583 14.3934V20.2501L7.05833 20.2898C9.15133 21.7598 11.8802 22.5601 15.1725 22.5601C18.6772 22.5601 21.9368 21.2114 24.3133 18.9084L24.4685 18.7533L24.3285 18.6366C23.7776 18.2051 23.1098 17.9491 22.4117 17.9016L22.1725 17.8934L19.7085 17.8923C19.7937 18.2668 19.8392 18.6576 19.8392 19.0589V20.2256H9.33916V17.8923H17.2608L17.2212 17.8001C16.9975 17.333 16.6536 16.9339 16.2246 16.6438C15.7957 16.3537 15.2972 16.183 14.7805 16.1493L14.5892 16.1434H11.1708C10.6285 15.5886 9.98054 15.1479 9.26523 14.8474C8.54993 14.5468 7.78171 14.3925 7.00583 14.3934ZM4.67249 13.2268H3.50583V21.3934H4.67249V13.2268ZM15.9262 4.56425L16.3392 4.97725L16.751 4.56425C17.2987 4.02115 18.0393 3.71712 18.8106 3.7187C19.5819 3.72028 20.3212 4.02734 20.8667 4.57268C21.4122 5.11802 21.7195 5.85723 21.7213 6.62857C21.7231 7.3999 21.4193 8.14054 20.8763 8.68842L16.338 13.2268L11.802 8.68842C11.5234 8.41936 11.3012 8.09753 11.1484 7.74168C10.9955 7.38584 10.915 7.00311 10.9117 6.61584C10.9083 6.22857 10.9821 5.8445 11.1288 5.48605C11.2754 5.12761 11.492 4.80195 11.7658 4.5281C12.0397 4.25425 12.3653 4.03767 12.7238 3.89102C13.0822 3.74437 13.4663 3.67057 13.8536 3.67394C14.2409 3.6773 14.6236 3.75776 14.9794 3.91062C15.3353 4.06348 15.6571 4.28568 15.9262 4.56425ZM13.4517 6.21392C13.3551 6.31022 13.2954 6.43729 13.2828 6.57305C13.2703 6.70882 13.3056 6.84469 13.3828 6.95709L13.4505 7.03875L16.338 9.92625L19.2267 7.03875C19.3233 6.94223 19.383 6.81486 19.3954 6.67885C19.4077 6.54283 19.372 6.40678 19.2943 6.29442L19.2267 6.21392C19.1301 6.11729 19.0028 6.05759 18.8668 6.04522C18.7307 6.03285 18.5947 6.06861 18.4823 6.14625L18.4007 6.21392L16.3368 8.27775L14.2753 6.21275L14.196 6.14625C14.0836 6.06861 13.9476 6.03285 13.8116 6.04522C13.6755 6.05759 13.5482 6.11729 13.4517 6.21392Z" fill="white"/>
</g>
</svg>
