<svg width="55" height="55" viewBox="0 0 55 55" fill="none" xmlns="http://www.w3.org/2000/svg">
<g id="svg1701400207_2196" clip-path="url(#clip0_4_4819)">
<path id="Vector" d="M53.0695 27.3576C53.0695 13.1572 41.5579 1.64557 27.3575 1.64557C13.1572 1.64557 1.64551 13.1572 1.64551 27.3576C1.64551 41.5579 13.1572 53.0696 27.3575 53.0696C41.5579 53.0696 53.0695 41.5579 53.0695 27.3576Z" fill="#A1AEE5" fill-opacity="0.05"/>
<path id="Vector_2" d="M33.1262 29.0059H31.478V25.7095H33.1262C35.3983 25.7095 37.2467 23.861 37.2467 21.589C37.2467 19.3169 35.3983 17.4684 33.1262 17.4684C30.8542 17.4684 29.0057 19.3169 29.0057 21.589V23.2372H25.7093V21.589C25.7093 19.3169 23.8608 17.4684 21.5888 17.4684C19.3167 17.4684 17.4683 19.3169 17.4683 21.589C17.4683 23.861 19.3167 25.7095 21.5888 25.7095H23.237V29.0059H21.5888C19.3167 29.0059 17.4683 30.8544 17.4683 33.1264C17.4683 35.3985 19.3167 37.2469 21.5888 37.2469C23.8608 37.2469 25.7093 35.3985 25.7093 33.1264V31.4782H29.0057V33.1264C29.0057 35.3985 30.8542 37.2469 33.1262 37.2469C35.3983 37.2469 37.2467 35.3985 37.2467 33.1264C37.2467 30.8544 35.3983 29.0059 33.1262 29.0059ZM31.478 21.589C31.478 20.68 32.2172 19.9408 33.1262 19.9408C34.0352 19.9408 34.7744 20.68 34.7744 21.589C34.7744 22.4979 34.0352 23.2372 33.1262 23.2372H31.478V21.589ZM21.5888 23.2372C20.6798 23.2372 19.9406 22.4979 19.9406 21.589C19.9406 20.68 20.6798 19.9408 21.5888 19.9408C22.4978 19.9408 23.237 20.68 23.237 21.589V23.2372H21.5888ZM23.237 33.1264C23.237 34.0354 22.4978 34.7746 21.5888 34.7746C20.6798 34.7746 19.9406 34.0354 19.9406 33.1264C19.9406 32.2174 20.6798 31.4782 21.5888 31.4782H23.237V33.1264ZM25.7093 29.0059V25.7095H29.0057V29.0059H25.7093ZM33.1262 34.7746C32.2172 34.7746 31.478 34.0354 31.478 33.1264V31.4782H33.1262C34.0352 31.4782 34.7744 32.2174 34.7744 33.1264C34.7744 34.0354 34.0352 34.7746 33.1262 34.7746Z" fill="white"/>
<path id="Vector_3" d="M53.5695 27.3576C53.5695 12.8811 41.834 1.14557 27.3575 1.14557C12.881 1.14557 1.14551 12.8811 1.14551 27.3576C1.14551 41.8341 12.881 53.5696 27.3575 53.5696C41.834 53.5696 53.5695 41.8341 53.5695 27.3576Z" stroke="#A1AEE5" stroke-opacity="0.27"/>
</g>
<defs>
<clipPath id="clip0_4_4819">
<rect width="55" height="55" fill="white"/>
</clipPath>
</defs>
</svg>
