<svg width="20" height="20" viewBox="0 0 20 20" fill="none" xmlns="http://www.w3.org/2000/svg">
<g id="svg-411256445_1265">
<path id="Vector" d="M10.8138 2.36377C11.3915 2.36155 11.9693 2.36736 12.5468 2.38118L12.7004 2.38673C12.8777 2.39306 13.0527 2.40098 13.2641 2.41048C14.1064 2.45006 14.6811 2.58306 15.1854 2.7786C15.7079 2.97968 16.1481 3.25202 16.5883 3.69218C16.9907 4.08771 17.3022 4.56614 17.5011 5.09423C17.6966 5.59852 17.8296 6.17406 17.8692 7.01639C17.8787 7.22698 17.8866 7.40273 17.8929 7.58006L17.8977 7.73364C17.9117 8.31092 17.9178 8.88836 17.9159 9.46581L17.9167 10.0564V11.0935C17.9186 11.6712 17.9126 12.2489 17.8985 12.8264L17.8937 12.98C17.8874 13.1574 17.8795 13.3323 17.87 13.5437C17.8304 14.386 17.6958 14.9608 17.5011 15.4651C17.3029 15.9937 16.9913 16.4725 16.5883 16.8679C16.1924 17.2703 15.7137 17.5818 15.1854 17.7807C14.6811 17.9762 14.1064 18.1092 13.2641 18.1488C13.0527 18.1583 12.8777 18.1662 12.7004 18.1726L12.5468 18.1773C11.9693 18.1914 11.3916 18.1975 10.8138 18.1955L10.2233 18.1963H9.18697C8.60926 18.1983 8.03155 18.1922 7.45401 18.1781L7.30043 18.1734C7.11249 18.1665 6.9246 18.1586 6.73676 18.1496C5.89443 18.11 5.31968 17.9754 4.81459 17.7807C4.2863 17.5822 3.80778 17.2707 3.41255 16.8679C3.00963 16.4723 2.69785 15.9935 2.49897 15.4651C2.30343 14.9608 2.17043 14.386 2.13084 13.5437C2.12203 13.3558 2.11411 13.1679 2.10709 12.98L2.10313 12.8264C2.08854 12.2489 2.08194 11.6712 2.08334 11.0935V9.46581C2.08113 8.88837 2.08694 8.31092 2.10076 7.73364L2.1063 7.58006C2.11263 7.40273 2.12055 7.22698 2.13005 7.01639C2.16963 6.17327 2.30263 5.59931 2.49818 5.09423C2.69718 4.56588 3.00956 4.08758 3.41334 3.69298C3.8083 3.28982 4.28652 2.97776 4.81459 2.7786C5.31968 2.58306 5.89363 2.45006 6.73676 2.41048L7.30043 2.38673L7.45401 2.38277C8.03128 2.36818 8.60872 2.36158 9.18618 2.36298L10.8138 2.36377ZM10 6.3221C9.47554 6.31468 8.95482 6.41158 8.46812 6.60715C7.98141 6.80273 7.53844 7.09309 7.16493 7.46135C6.79142 7.82962 6.49483 8.26844 6.29239 8.75233C6.08995 9.23622 5.9857 9.75551 5.9857 10.28C5.9857 10.8046 6.08995 11.3239 6.29239 11.8077C6.49483 12.2916 6.79142 12.7305 7.16493 13.0987C7.53844 13.467 7.98141 13.7573 8.46812 13.9529C8.95482 14.1485 9.47554 14.2454 10 14.238C11.0498 14.238 12.0566 13.8209 12.799 13.0786C13.5413 12.3363 13.9583 11.3295 13.9583 10.2796C13.9583 9.22983 13.5413 8.22301 12.799 7.48068C12.0566 6.73835 11.0498 6.3221 10 6.3221ZM10 7.90543C10.3155 7.89962 10.629 7.95673 10.9221 8.07343C11.2153 8.19013 11.4823 8.36408 11.7075 8.58511C11.9326 8.80615 12.1115 9.06984 12.2337 9.36079C12.3558 9.65173 12.4187 9.9641 12.4188 10.2796C12.4188 10.5952 12.356 10.9076 12.234 11.1985C12.1119 11.4895 11.9331 11.7533 11.708 11.9744C11.4829 12.1955 11.216 12.3695 10.9229 12.4863C10.6297 12.6031 10.3163 12.6604 10.0008 12.6546C9.37091 12.6546 8.76682 12.4044 8.32142 11.959C7.87602 11.5136 7.6258 10.9095 7.6258 10.2796C7.6258 9.64975 7.87602 9.04566 8.32142 8.60026C8.76682 8.15486 9.37091 7.90464 10.0008 7.90464L10 7.90543ZM14.1563 5.1346C13.9009 5.14482 13.6593 5.25347 13.4822 5.43779C13.3052 5.6221 13.2063 5.86779 13.2063 6.12339C13.2063 6.37899 13.3052 6.62468 13.4822 6.809C13.6593 6.99331 13.9009 7.10196 14.1563 7.11218C14.4187 7.11218 14.6704 7.00792 14.856 6.82234C15.0416 6.63676 15.1458 6.38505 15.1458 6.1226C15.1458 5.86015 15.0416 5.60844 14.856 5.42286C14.6704 5.23728 14.4187 5.13302 14.1563 5.13302V5.1346Z" fill="white"/>
</g>
</svg>
