<svg width="20" height="20" viewBox="0 0 20 20" fill="none" xmlns="http://www.w3.org/2000/svg">
<g id="svg224258613_263">
<path id="Vector" d="M5.99418 4.73793C5.99397 5.15786 5.82696 5.5605 5.52987 5.85729C5.23279 6.15407 4.82998 6.32069 4.41006 6.32048C3.99013 6.32027 3.58749 6.15325 3.2907 5.85617C2.99392 5.55909 2.8273 5.15628 2.82751 4.73635C2.82772 4.31642 2.99474 3.91378 3.29182 3.617C3.5889 3.32021 3.99171 3.1536 4.41164 3.15381C4.83157 3.15402 5.23421 3.32104 5.53099 3.61812C5.82778 3.9152 5.99439 4.31801 5.99418 4.73793ZM6.04168 7.49293H2.87501V17.4046H6.04168V7.49293ZM11.045 7.49293H7.89418V17.4046H11.0133V12.2034C11.0133 9.30585 14.7896 9.03668 14.7896 12.2034V17.4046H17.9167V11.1267C17.9167 6.2421 12.3275 6.42418 11.0133 8.82293L11.045 7.49293Z" fill="white"/>
</g>
</svg>
