<svg width="132" height="63" viewBox="0 0 132 63" fill="none" xmlns="http://www.w3.org/2000/svg">
<g id="Union">
<path fill-rule="evenodd" clip-rule="evenodd" d="M12.6336 2.73511C10.1454 -0.309852 5.65994 -0.761211 2.61498 1.72697C-0.429972 4.21514 -0.881327 8.70064 1.60685 11.7456L40.5761 59.435C43.0643 62.4799 47.5498 62.9313 50.5948 60.4431C53.6397 57.955 54.0911 53.4695 51.6029 50.4245L35.685 30.9447L46.3934 18.3769L79.9439 59.435C82.4321 62.4799 86.9176 62.9313 89.9626 60.4431C93.0075 57.955 93.4589 53.4695 90.9707 50.4245L52.0014 2.73511C49.5132 -0.309852 45.0277 -0.761211 41.9828 1.72697C41.4625 2.15212 41.0179 2.63559 40.6508 3.16022L26.5265 19.7368L12.6336 2.73511ZM80.608 1.72697C83.653 -0.761209 88.1385 -0.309852 90.6267 2.73511L129.596 50.4245C132.084 53.4695 131.633 57.955 128.588 60.4431C125.543 62.9313 121.057 62.4799 118.569 59.435L79.5999 11.7456C77.1117 8.70064 77.5631 4.21515 80.608 1.72697ZM2.52083 60.4195C-0.472275 57.8692 -0.831231 53.3754 1.71908 50.3822L8.59894 42.3079C11.1492 39.3148 15.6431 38.9558 18.6362 41.5061C21.6293 44.0564 21.9883 48.5502 19.4379 51.5434L12.5581 59.6177C10.0078 62.6108 5.51394 62.9698 2.52083 60.4195Z" fill="#2F84F6"/>
<path fill-rule="evenodd" clip-rule="evenodd" d="M12.6336 2.73511C10.1454 -0.309852 5.65994 -0.761211 2.61498 1.72697C-0.429972 4.21514 -0.881327 8.70064 1.60685 11.7456L40.5761 59.435C43.0643 62.4799 47.5498 62.9313 50.5948 60.4431C53.6397 57.955 54.0911 53.4695 51.6029 50.4245L35.685 30.9447L46.3934 18.3769L79.9439 59.435C82.4321 62.4799 86.9176 62.9313 89.9626 60.4431C93.0075 57.955 93.4589 53.4695 90.9707 50.4245L52.0014 2.73511C49.5132 -0.309852 45.0277 -0.761211 41.9828 1.72697C41.4625 2.15212 41.0179 2.63559 40.6508 3.16022L26.5265 19.7368L12.6336 2.73511ZM80.608 1.72697C83.653 -0.761209 88.1385 -0.309852 90.6267 2.73511L129.596 50.4245C132.084 53.4695 131.633 57.955 128.588 60.4431C125.543 62.9313 121.057 62.4799 118.569 59.435L79.5999 11.7456C77.1117 8.70064 77.5631 4.21515 80.608 1.72697ZM2.52083 60.4195C-0.472275 57.8692 -0.831231 53.3754 1.71908 50.3822L8.59894 42.3079C11.1492 39.3148 15.6431 38.9558 18.6362 41.5061C21.6293 44.0564 21.9883 48.5502 19.4379 51.5434L12.5581 59.6177C10.0078 62.6108 5.51394 62.9698 2.52083 60.4195Z" fill="url(#paint0_linear_261_3095)"/>
</g>
<defs>
<linearGradient id="paint0_linear_261_3095" x1="65.6015" y1="0.120117" x2="65.6015" y2="62.1201" gradientUnits="userSpaceOnUse">
<stop stop-color="#B6C2F1"/>
<stop offset="1" stop-color="#EBEFFF"/>
</linearGradient>
</defs>
</svg>
