<svg width="162" height="49" viewBox="0 0 162 49" fill="none" xmlns="http://www.w3.org/2000/svg">
<g id="svg-1881287671_5977">
<path id="Vector" fill-rule="evenodd" clip-rule="evenodd" d="M26.5192 11.0508H2.48031C1.11021 11.0508 0 12.1613 0 13.5311V37.57C0 38.94 1.11047 40.0502 2.48031 40.0502H26.5192C27.8892 40.0502 28.9995 38.9397 28.9995 37.57V13.5311C28.9995 12.161 27.889 11.0508 26.5192 11.0508ZM15.2377 27.0279C13.0699 27.0279 12.0847 24.933 12.0847 22.9911C12.0847 19.9334 13.7415 18.8448 15.2912 18.8448C17.1931 18.8448 18.471 20.4988 18.471 22.9625C18.471 25.7728 16.8454 27.0279 15.2377 27.0279ZM22.5556 22.9086C22.5556 18.3259 19.942 15.2473 16.0549 15.2473C13.7935 15.2473 12.4844 16.273 11.8529 16.9808C11.7771 16.3705 11.3789 15.5787 9.82318 15.5787H6.44434V19.1477H7.82917C8.06393 19.1477 8.13971 19.2226 8.13971 19.4596V35.7568H12.1664V29.6401C12.1664 29.4752 12.1634 29.3207 12.159 29.1827C12.7875 29.7645 13.9896 30.5683 15.8662 30.5683C19.8023 30.5683 22.5556 27.4192 22.5556 22.9086Z" fill="#A1AEE5"/>
<path id="Vector_2" fill-rule="evenodd" clip-rule="evenodd" d="M39.6401 18.8599C40.3534 18.0612 41.8321 16.9036 44.3867 16.9036C48.7773 16.9036 51.7296 20.3779 51.7296 25.5496C51.7296 30.6401 48.6195 34.194 44.1734 34.194C42.0536 34.194 40.6958 33.2869 39.9859 32.6303C39.9909 32.786 39.9943 32.9603 39.9943 33.1464V40.0494H35.4458V21.6574C35.4458 21.3899 35.3602 21.3054 35.0951 21.3054H33.5308V17.2776H37.3474C39.1047 17.2776 39.5545 18.1712 39.6401 18.8599ZM43.5239 20.9635C41.7734 20.9635 39.902 22.1921 39.902 25.6427C39.902 27.8342 41.0147 30.1984 43.4635 30.1984C45.2795 30.1984 47.1157 28.782 47.1157 25.6106C47.1157 22.8301 45.6722 20.9635 43.5239 20.9635Z" fill="#A1AEE5"/>
<path id="Vector_3" d="M57.8377 29.4729V19.7268C57.8377 18.0802 57.0506 17.2781 55.4377 17.2781H51.3726V21.3057H52.9386C53.2021 21.3057 53.2876 21.3921 53.2876 21.6578V31.3699C53.2876 33.0419 54.0496 33.8187 55.6827 33.8187H59.7528V29.8266H58.1868C57.9351 29.8266 57.8377 29.725 57.8377 29.4729Z" fill="#A1AEE5"/>
<path id="Vector_4" fill-rule="evenodd" clip-rule="evenodd" d="M64.9714 18.8599C65.6881 18.0612 67.1634 16.9036 69.7213 16.9036C74.1103 16.9036 77.0609 20.3779 77.0609 25.5496C77.0609 30.6401 73.9542 34.194 69.5064 34.194C67.3884 34.194 66.0255 33.2869 65.3189 32.6303C65.3239 32.786 65.3289 32.9603 65.3289 33.1464V40.0494H60.7771V21.6574C60.7771 21.3899 60.6916 21.3054 60.428 21.3054H58.8638V17.2776H62.6821C64.4394 17.2776 64.8875 18.1712 64.9714 18.8599ZM65.2332 25.6427C65.2332 27.8342 66.3511 30.1984 68.7931 30.1984C70.6142 30.1984 72.4487 28.782 72.4487 25.6106C72.4487 22.8301 71.0052 20.9635 68.8569 20.9635C67.1047 20.9635 65.2332 22.1921 65.2332 25.6427Z" fill="#A1AEE5"/>
<path id="Vector_5" fill-rule="evenodd" clip-rule="evenodd" d="M77.293 25.5504C77.293 20.4599 80.7203 16.9043 85.6211 16.9043C89.9917 16.9043 92.9289 20.0656 92.9289 24.7702C92.9289 25.2474 92.8399 26.2239 92.8314 26.2645L92.8063 26.5657H82.0193C82.4137 28.7658 84.082 30.1686 86.3613 30.1686C88.655 30.1686 90.4101 28.6107 90.5456 28.4904C90.5505 28.4861 90.5539 28.4831 90.5539 28.4831L90.8476 28.2022L92.8298 31.5175L92.6468 31.7002C92.5388 31.8056 90.0905 34.1947 86.0861 34.1947C80.9904 34.1947 77.293 30.5579 77.293 25.5504ZM85.6211 20.6189C83.9159 20.6189 82.6823 21.5396 82.1888 23.1625H88.231C88.0447 21.6699 86.9907 20.6189 85.6211 20.6189Z" fill="#A1AEE5"/>
<path id="Vector_6" fill-rule="evenodd" clip-rule="evenodd" d="M109.474 13.4991V29.4728C109.474 29.725 109.571 29.8265 109.823 29.8265H111.355V33.8187H107.414C105.713 33.8187 105.254 32.915 105.162 32.2008C104.455 33.0199 103.009 34.1943 100.5 34.1943C96.1089 34.1943 93.1583 30.7217 93.1583 25.55C93.1583 20.4595 96.2381 16.904 100.652 16.904C102.91 16.904 104.221 17.7079 104.892 18.3188V15.4317C104.892 15.1643 104.806 15.0797 104.543 15.0797H102.977V11.0503H107.042C108.677 11.0503 109.474 11.8525 109.474 13.4991ZM97.799 25.55C97.799 28.3728 99.1988 30.1988 101.362 30.1988C103.113 30.1988 104.986 28.9719 104.986 25.5196C104.986 23.2502 103.883 20.9639 101.424 20.9639C99.2559 20.9639 97.799 22.8051 97.799 25.55Z" fill="#A1AEE5"/>
<path id="Vector_7" d="M121.477 17.0596C119.584 17.0596 117.842 18.1613 116.808 19.9162V19.5389C116.808 18.0395 115.987 17.2779 114.376 17.2779H110.465V21.3056H112.03C112.293 21.3056 112.38 21.3903 112.38 21.6576V33.8186H116.929V27.1999C116.929 26.3284 117.04 25.4891 117.254 24.7122C117.939 22.4293 119.759 21.617 121.231 21.617C121.752 21.617 122.132 21.6729 122.138 21.6745L122.518 21.7321V17.173L122.241 17.1256C122.227 17.1222 121.841 17.0596 121.477 17.0596Z" fill="#A1AEE5"/>
<path id="Vector_8" d="M128.992 29.4729V19.7269C128.992 18.0802 128.209 17.2781 126.595 17.2781H122.918V21.3058H124.093C124.359 21.3058 124.442 21.3921 124.442 21.6578V31.3699C124.442 33.0419 125.206 33.8187 126.843 33.8187H130.909V29.8266H129.341C129.09 29.8266 128.992 29.725 128.992 29.4729Z" fill="#A1AEE5"/>
<path id="Vector_9" d="M146.165 17.2781H143.738C142.32 17.2781 141.559 17.7739 141.109 18.9907L138.144 27.3423C138.041 27.652 137.945 27.9989 137.863 28.3323C137.778 27.9989 137.675 27.6469 137.563 27.3372L134.597 18.989C134.142 17.7587 133.407 17.2781 131.971 17.2781H129.389V21.3058H130.058C130.415 21.3058 130.529 21.4277 130.613 21.6511L135.203 33.8188H140.319L144.909 21.6511C144.993 21.4277 145.111 21.3058 145.466 21.3058H146.165V17.2781Z" fill="#A1AEE5"/>
<path id="Vector_10" fill-rule="evenodd" clip-rule="evenodd" d="M145.672 25.5504C145.672 20.4599 149.099 16.9043 153.998 16.9043C158.371 16.9043 161.31 20.0656 161.31 24.7702C161.31 25.2474 161.218 26.2239 161.213 26.2645L161.188 26.5657H150.397C150.792 28.7658 152.46 30.1686 154.741 30.1686C157.107 30.1686 158.915 28.4983 158.931 28.4831L159.232 28.2022L161.21 31.5175L161.025 31.7002C160.922 31.8017 158.472 34.1947 154.463 34.1947C149.367 34.1947 145.672 30.5579 145.672 25.5504ZM153.998 20.6189C152.294 20.6189 151.065 21.5396 150.567 23.1625H156.609C156.423 21.6699 155.371 20.6189 153.998 20.6189Z" fill="#A1AEE5"/>
<path id="Vector_11" d="M57.5271 11.0515H53.4722V15.3584H57.5271V11.0515Z" fill="#A1AEE5"/>
<path id="Vector_12" d="M128.684 11.0515H124.627V15.3584H128.684V11.0515Z" fill="#A1AEE5"/>
</g>
</svg>
