<svg width="170" height="143" viewBox="0 0 170 143" fill="none" xmlns="http://www.w3.org/2000/svg">
<g id="svg1666227073_3797">
<path id="Vector" d="M180.064 34.7618C190.591 34.7618 199.125 26.228 199.125 15.701C199.125 5.17403 190.59 -3.35986 180.063 -3.35986C169.535 -3.35986 161 5.17474 161 15.7026V34.7618H180.064ZM126.688 34.7618C137.215 34.7618 145.75 26.2273 145.75 15.6993V-37.6724C145.75 -48.2003 137.215 -56.7349 126.688 -56.7349C116.16 -56.7349 107.625 -48.2003 107.625 -37.6724V15.6993C107.625 26.2273 116.16 34.7618 126.688 34.7618Z" fill="#A1AEE5" fill-opacity="0.14"/>
<path id="Vector_2" d="M180.064 34.2618H161.5V15.7026C161.5 5.45094 169.812 -2.85986 180.063 -2.85986C190.314 -2.85986 198.625 5.45013 198.625 15.701C198.625 25.9518 190.315 34.2618 180.064 34.2618ZM145.25 -37.6724V15.6993C145.25 25.9511 136.939 34.2618 126.688 34.2618C116.436 34.2618 108.125 25.9511 108.125 15.6993V-37.6724C108.125 -47.9241 116.436 -56.2349 126.688 -56.2349C136.939 -56.2349 145.25 -47.9242 145.25 -37.6724Z" stroke="#A1AEE5" stroke-opacity="0.2"/>
<path id="Vector_3" d="M19.9359 50.0181C9.40883 50.0181 0.875 58.5521 0.875 69.0791C0.875 79.6061 9.40965 88.1401 19.9367 88.1401C30.4646 88.1401 39 79.6051 39 69.0771V50.0181H19.9359ZM73.3125 50.0181C62.7846 50.0181 54.25 58.5531 54.25 69.0811V122.453C54.25 132.98 62.7846 141.515 73.3125 141.515C83.8404 141.515 92.375 132.98 92.375 122.452V69.0811C92.375 58.5531 83.8404 50.0181 73.3125 50.0181Z" fill="#A1AEE5" fill-opacity="0.14"/>
<path id="Vector_4" d="M19.9359 50.5181H38.5V69.0771C38.5 79.3291 30.1885 87.6401 19.9367 87.6401C9.68577 87.6401 1.375 79.3301 1.375 69.0791C1.375 58.8281 9.68497 50.5181 19.9359 50.5181ZM54.75 122.453V69.0811C54.75 58.8291 63.0607 50.5181 73.3125 50.5181C83.5643 50.5181 91.875 58.8291 91.875 69.0811V122.452C91.875 132.704 83.5643 141.015 73.3125 141.015C63.0607 141.015 54.75 132.704 54.75 122.453Z" stroke="#A1AEE5" stroke-opacity="0.2"/>
<path id="Vector_5" d="M107.626 122.454C107.626 132.981 116.16 141.515 126.687 141.515C137.214 141.515 145.748 132.98 145.748 122.453C145.748 111.925 137.214 103.39 126.686 103.39H107.626V122.454ZM107.626 69.0771C107.626 79.6051 116.161 88.1401 126.689 88.1401H180.061C190.589 88.1401 199.123 79.6051 199.123 69.0781C199.123 58.5501 190.589 50.0151 180.061 50.0151H126.689C116.161 50.0151 107.626 58.5501 107.626 69.0771Z" fill="#A1AEE5" fill-opacity="0.14"/>
<path id="Vector_6" d="M108.126 122.454V103.89H126.686C136.937 103.89 145.248 112.202 145.248 122.453C145.248 132.704 136.938 141.015 126.687 141.015C116.436 141.015 108.126 132.705 108.126 122.454ZM180.061 87.6401H126.689C116.437 87.6401 108.126 79.3291 108.126 69.0771C108.126 58.8261 116.437 50.5151 126.689 50.5151H180.061C190.312 50.5151 198.623 58.8261 198.623 69.0771C198.623 79.3291 190.312 87.6401 180.061 87.6401Z" stroke="#A1AEE5" stroke-opacity="0.2"/>
<path id="Vector_7" d="M92.3736 -37.674C92.3736 -48.201 83.8397 -56.7349 73.3127 -56.7349C62.7857 -56.7349 54.2518 -48.2002 54.2518 -37.6732C54.2518 -27.1453 62.7864 -18.6099 73.3143 -18.6099H92.3736V-37.674ZM92.3736 15.7026C92.3736 5.17473 83.839 -3.35987 73.3111 -3.35987H19.9393C9.41139 -3.35987 0.876831 5.17473 0.876831 15.7026C0.87683 26.2305 9.4114 34.7651 19.9393 34.7651H73.3111C83.839 34.7651 92.3736 26.2305 92.3736 15.7026Z" fill="#A1AEE5" fill-opacity="0.14"/>
<path id="Vector_8" d="M91.8736 -37.674V-19.1099H73.3143C63.0626 -19.1099 54.7518 -27.4214 54.7518 -37.6732C54.7518 -47.9241 63.0619 -56.2349 73.3127 -56.2349C83.5636 -56.2349 91.8736 -47.9249 91.8736 -37.674ZM19.9393 -2.85987H73.3111C83.5628 -2.85987 91.8736 5.45083 91.8736 15.7026C91.8736 25.9544 83.5629 34.2651 73.3111 34.2651H19.9393C9.68755 34.2651 1.37683 25.9544 1.37683 15.7026C1.37683 5.45083 9.68753 -2.85987 19.9393 -2.85987Z" stroke="#A1AEE5" stroke-opacity="0.2"/>
</g>
</svg>
