<svg width="141" height="26" viewBox="0 0 141 26" fill="none" xmlns="http://www.w3.org/2000/svg">
<path id="Vector" d="M10.5813 19.4199C7.9563 19.4199 5.7063 18.4199 3.7063 16.5449C1.7063 14.6699 0.831299 12.5449 0.831299 9.79492C0.831299 7.04492 1.8313 4.91992 3.7063 3.04492C5.5813 1.16992 7.9563 0.169922 10.5813 0.169922C12.9563 0.294922 15.3313 1.16992 17.0813 2.91992L15.2063 4.79492C13.9563 3.54492 12.3313 2.91992 10.4563 2.91992C8.5813 2.91992 6.9563 3.54492 5.5813 4.91992C4.3313 6.16992 3.5813 8.04492 3.7063 9.79492C3.7063 11.6699 4.3313 13.4199 5.7063 14.6699C6.9563 16.1699 8.7063 16.7949 10.4563 16.7949C12.4563 16.7949 13.9563 16.1699 15.3313 14.9199C16.0813 14.1699 16.5813 13.0449 16.7063 11.6699H10.5813V9.04492H19.3313C19.4563 9.54492 19.4563 10.0449 19.4563 10.6699C19.4563 13.2949 18.7063 15.2949 17.2063 16.7949C15.4563 18.5449 13.3313 19.5449 10.5813 19.5449V19.4199ZM31.0813 17.6699C29.8313 18.7949 28.4563 19.4199 26.7063 19.4199C24.9563 19.4199 23.4563 18.7949 22.3313 17.6699C21.2063 16.5449 20.5813 15.0449 20.5813 13.2949C20.5813 11.5449 21.2063 10.0449 22.3313 8.91992C23.4563 7.79492 24.9563 7.16992 26.7063 7.16992C28.4563 7.16992 29.9563 7.79492 31.0813 8.91992C32.2063 10.0449 32.8313 11.5449 32.8313 13.2949C32.8313 15.0449 32.2063 16.5449 31.0813 17.6699ZM24.2063 15.9199C24.8313 16.6699 25.7063 17.0449 26.5813 17.0449C27.5813 17.0449 28.3313 16.6699 29.0813 15.9199C29.8313 15.1699 30.0813 14.2949 30.0813 13.2949C30.0813 12.1699 29.7063 11.2949 29.0813 10.5449C28.4563 9.79492 27.5813 9.54492 26.5813 9.54492C25.7063 9.54492 24.7063 9.91992 24.0813 10.5449C23.4563 11.2949 23.0813 12.1699 23.0813 13.2949C23.0813 14.4199 23.4563 15.2949 24.0813 15.9199H24.2063ZM44.5813 17.6699C43.3313 18.7949 41.9563 19.4199 40.2063 19.4199C38.4563 19.4199 36.9563 18.7949 35.8313 17.6699C34.7063 16.5449 34.0813 15.0449 34.0813 13.2949C34.0813 11.5449 34.7063 10.0449 35.8313 8.91992C36.9563 7.79492 38.4563 7.16992 40.2063 7.16992C41.9563 7.16992 43.4563 7.79492 44.5813 8.91992C45.7063 10.0449 46.3313 11.5449 46.3313 13.2949C46.3313 15.0449 45.7063 16.5449 44.5813 17.6699ZM37.7063 15.9199C38.3313 16.6699 39.2063 17.0449 40.0813 17.0449C41.0813 17.0449 41.8313 16.6699 42.5813 15.9199C43.3313 15.1699 43.5813 14.2949 43.5813 13.2949C43.5813 12.1699 43.2063 11.2949 42.5813 10.5449C41.9563 9.79492 41.0813 9.54492 40.0813 9.54492C39.2063 9.54492 38.2063 9.91992 37.5813 10.5449C36.9563 11.2949 36.5813 12.1699 36.5813 13.2949C36.5813 14.4199 36.9563 15.2949 37.5813 15.9199H37.7063ZM53.4563 24.9199C52.0813 24.9199 50.9563 24.5449 49.9563 23.7949C48.9563 23.0449 48.3313 22.1699 47.9563 21.2949L50.3313 20.2949C50.5813 20.9199 50.9563 21.4199 51.4563 21.7949C51.9563 22.1699 52.5813 22.4199 53.4563 22.4199C54.4563 22.4199 55.3313 22.0449 55.8313 21.5449C56.3313 21.0449 56.7063 20.0449 56.7063 18.7949V17.9199H56.5813C55.8313 18.7949 54.7063 19.2949 53.3313 19.2949C51.7063 19.2949 50.3313 18.6699 49.2063 17.5449C47.9563 16.5449 47.3313 14.9199 47.4563 13.2949C47.3313 11.6699 47.9563 10.0449 49.2063 8.91992C50.3313 7.66992 51.7063 7.16992 53.3313 7.16992C54.0813 7.16992 54.7063 7.29492 55.2063 7.54492C55.7063 7.79492 56.2063 8.16992 56.5813 8.54492H56.7063V7.54492H59.3313V18.6699C59.3313 20.7949 58.8313 22.4199 57.7063 23.5449C56.5813 24.5449 55.2063 25.1699 53.4563 25.1699V24.9199ZM53.5813 16.9199C54.4563 17.0449 55.3313 16.6699 55.8313 15.9199C56.4563 15.1699 56.8313 14.2949 56.8313 13.2949C56.8313 12.1699 56.4563 11.2949 55.8313 10.5449C55.3313 9.91992 54.4563 9.54492 53.5813 9.54492C52.5813 9.54492 51.8313 9.91992 51.2063 10.6699C50.5813 11.4199 50.2063 12.2949 50.2063 13.4199C50.2063 14.4199 50.5813 15.4199 51.2063 16.0449C51.8313 16.6699 52.7063 17.1699 53.5813 17.1699V16.9199ZM63.8313 0.794922V18.9199H61.0813V0.794922H63.8313ZM71.2063 19.2949C69.4563 19.2949 67.9563 18.6699 66.8313 17.5449C65.7063 16.4199 65.0813 14.9199 65.0813 13.1699C65.0813 11.4199 65.7063 9.91992 66.8313 8.66992C67.8313 7.66992 69.3313 7.04492 70.9563 7.04492C71.7063 7.04492 72.4563 7.16992 73.0813 7.41992C73.5813 7.79492 74.0813 8.04492 74.5813 8.54492C74.9563 8.91992 75.3313 9.29492 75.5813 9.79492C75.8313 10.1699 76.0813 10.5449 76.2063 11.0449L76.4563 11.7949L68.2063 15.1699C68.8313 16.4199 69.8313 17.0449 71.2063 17.0449C72.4563 17.0449 73.4563 16.4199 74.2063 15.2949L76.3313 16.6699C75.8313 17.4199 75.2063 18.0449 74.3313 18.5449C73.4563 19.0449 72.4563 19.4199 71.2063 19.4199V19.2949ZM67.8313 12.9199L73.3313 10.6699C73.2063 10.2949 72.8313 9.91992 72.4563 9.66992C71.9563 9.54492 71.4563 9.41992 70.9563 9.41992C70.2063 9.41992 69.4563 9.79492 68.7063 10.4199C67.9563 11.0449 67.7063 11.9199 67.7063 13.0449L67.8313 12.9199ZM90.7063 19.2949C88.2063 19.2949 86.2063 18.4199 84.4563 16.7949C82.7063 15.1699 81.9563 13.0449 81.9563 10.5449C81.9563 8.04492 82.8313 5.91992 84.4563 4.29492C86.0813 2.66992 88.2063 1.79492 90.7063 1.79492C93.2063 1.79492 95.3313 2.66992 96.8313 4.54492L95.3313 6.04492C94.2063 4.66992 92.5813 3.91992 90.7063 3.91992C88.8313 3.91992 87.3313 4.54492 86.0813 5.79492C84.8313 7.04492 84.2063 8.66992 84.2063 10.6699C84.2063 12.6699 84.8313 14.2949 86.0813 15.5449C87.3313 16.7949 88.8313 17.4199 90.7063 17.4199C92.7063 17.4199 94.4563 16.6699 95.8313 15.0449L97.3313 16.5449C96.5813 17.4199 95.5813 18.1699 94.4563 18.6699C93.2063 19.1699 91.9563 19.2949 90.7063 19.2949ZM101.456 18.9199H99.3313V2.29492H101.456V18.9199ZM104.956 8.79492C106.081 7.66992 107.456 7.04492 109.206 7.04492C110.956 7.04492 112.331 7.66992 113.456 8.79492C114.581 9.91992 115.081 11.4199 115.081 13.1699C115.081 14.9199 114.581 16.4199 113.456 17.5449C112.331 18.6699 110.956 19.2949 109.206 19.2949C107.456 19.2949 106.081 18.6699 104.956 17.5449C103.831 16.4199 103.331 14.9199 103.331 13.1699C103.331 11.4199 103.831 9.91992 104.956 8.79492ZM106.581 16.1699C107.331 16.9199 108.206 17.2949 109.206 17.2949C110.206 17.2949 111.081 16.9199 111.831 16.1699C112.581 15.4199 112.956 14.4199 112.956 13.1699C112.956 11.9199 112.581 10.9199 111.831 10.1699C111.081 9.41992 110.206 9.04492 109.206 9.04492C108.206 9.04492 107.331 9.41992 106.581 10.1699C105.831 10.9199 105.456 11.9199 105.456 13.1699C105.456 14.4199 105.831 15.4199 106.581 16.1699ZM126.956 18.9199H124.956V17.2949H124.831C124.456 17.7949 123.956 18.2949 123.331 18.6699C122.706 19.0449 121.956 19.2949 121.206 19.2949C119.831 19.2949 118.706 18.9199 117.956 18.0449C117.206 17.1699 116.831 16.0449 116.831 14.5449V7.54492H118.956V14.1699C118.956 16.2949 119.956 17.4199 121.831 17.4199C122.581 17.4199 123.456 17.0449 123.956 16.4199C124.456 15.6699 124.706 14.7949 124.706 13.9199V7.66992H126.831V19.1699L126.956 18.9199ZM134.206 19.0449C132.706 19.0449 131.456 18.6699 130.331 17.5449C129.206 16.4199 128.706 14.9199 128.706 13.1699C128.706 11.4199 129.206 10.0449 130.331 8.79492C131.456 7.54492 132.706 7.04492 134.206 7.04492C135.081 7.04492 135.831 7.29492 136.581 7.54492C137.331 7.79492 137.831 8.41992 138.081 8.91992H138.206L138.081 7.29492V2.04492H140.206V18.7949H138.206V17.1699H138.081C137.706 17.6699 137.206 18.1699 136.581 18.5449C135.831 18.9199 135.081 19.0449 134.206 19.0449ZM134.581 17.2949C135.456 17.4199 136.456 17.0449 137.081 16.2949C137.831 15.5449 138.081 14.5449 138.081 13.2949C138.081 12.0449 137.706 11.0449 137.081 10.2949C136.456 9.66992 135.456 9.16992 134.581 9.16992C133.581 9.16992 132.706 9.54492 131.956 10.2949C131.206 11.0449 130.831 12.0449 130.831 13.2949C130.831 14.5449 131.206 15.5449 131.956 16.2949C132.581 17.0449 133.581 17.2949 134.581 17.2949Z" fill="#A1AEE5"/>
</svg>
