<svg width="123" height="40" viewBox="0 0 123 40" fill="none" xmlns="http://www.w3.org/2000/svg">
<path id="Vector" d="M88.0428 32.3444C85.3248 32.1704 83.7438 30.6244 83.3258 27.7314C83.2138 26.9614 83.2138 26.9414 83.2018 21.9454L83.1918 17.1094H85.5958L85.6058 21.7874C85.6138 26.0034 85.6188 26.4974 85.6598 26.7934C85.8228 27.9974 86.1498 28.8064 86.7038 29.3874C87.1478 29.8524 87.6688 30.1244 88.3878 30.2694C88.7278 30.3374 89.6938 30.3374 90.0038 30.2694C90.6989 30.1275 91.336 29.7818 91.8338 29.2764C92.4218 28.6894 92.8568 27.8564 93.0678 26.9144L93.1388 26.5964L93.1468 21.8794L93.1548 17.1624H95.6098V31.9934H93.1798V30.8164C93.1798 30.0174 93.1708 29.6434 93.1528 29.6494C93.0974 29.7137 93.0507 29.785 93.0138 29.8614C92.5704 30.6482 91.9199 31.2985 91.1328 31.7414C90.2168 32.2464 89.2968 32.4254 88.0418 32.3444H88.0428ZM115.626 32.3324C114.636 32.2503 113.68 31.9384 112.832 31.4214C111.092 30.3464 110.062 28.5734 109.76 26.1344C109.656 25.2914 109.643 24.1574 109.73 23.4404C109.925 21.8374 110.555 20.2644 111.453 19.1414C111.683 18.8534 112.205 18.3324 112.493 18.1024C113.269 17.4826 114.178 17.0495 115.148 16.8364C115.712 16.7134 116.703 16.6564 117.302 16.7114C118.804 16.8504 120.182 17.5574 121.118 18.6694C122.07 19.7994 122.592 21.3794 122.659 23.3244C122.669 23.6294 122.672 24.1644 122.665 24.5124L122.651 25.1454L117.387 25.1524L112.124 25.1584V25.3934C112.134 26.1574 112.295 26.9119 112.598 27.6134C112.857 28.2104 113.303 28.8624 113.668 29.1774C114.417 29.8244 115.351 30.2188 116.338 30.3044C116.709 30.3394 117.657 30.3024 118.081 30.2374C119.27 30.0601 120.399 29.5953 121.368 28.8834C121.478 28.8014 121.582 28.7244 121.601 28.7134C121.628 28.6964 121.634 28.9094 121.633 29.8084V30.9244L121.383 31.0784C120.309 31.7351 119.106 32.1517 117.856 32.2994C117.476 32.3464 116.081 32.3674 115.626 32.3324ZM120.208 22.9184C120.208 21.7214 119.703 20.3924 118.988 19.7084C118.479 19.2204 117.828 18.9054 117.13 18.8084C116.783 18.7544 116.053 18.7744 115.687 18.8484C114.94 18.9905 114.254 19.3548 113.718 19.8934C113.128 20.4779 112.683 21.1913 112.416 21.9774C112.316 22.2654 112.2 22.7374 112.164 23.0014L112.147 23.1264H120.207L120.208 22.9184ZM48.8028 31.9604L52.7748 21.5364L56.7358 11.1464H59.2818L59.3868 11.4164C59.7098 12.2424 67.3168 31.9704 67.3168 31.9814C67.3168 31.9874 66.7068 31.9934 65.9628 31.9934H64.6088L63.5128 29.0774L62.4158 26.1614H53.5878L53.5498 26.2604C53.5288 26.3144 53.0598 27.6264 52.5088 29.1754L51.5058 31.9924H50.1498C49.0758 31.9924 48.7938 31.9864 48.8028 31.9604ZM61.6098 23.9364C61.6098 23.9314 60.8728 21.9334 59.9698 19.4964C58.2838 14.9364 58.1898 14.6624 58.0558 13.9294C57.9938 13.5864 57.9618 13.5774 57.9258 13.8894C57.8726 14.2291 57.7954 14.5646 57.6948 14.8934C57.6508 15.0314 56.8908 17.1134 56.0068 19.5214C55.4656 20.9863 54.9292 22.453 54.3978 23.9214C54.3978 23.9344 56.0208 23.9444 58.0038 23.9444C59.9878 23.9444 61.6098 23.9404 61.6098 23.9364ZM68.1358 31.6134V31.2334L72.5338 25.1944L76.9328 19.1544L72.9498 19.1414L68.9678 19.1284L68.9608 18.1184L68.9538 17.1094H80.4738V17.7914L76.0738 23.8644C73.6558 27.2044 71.6758 29.9424 71.6758 29.9484C71.6758 29.9554 73.6318 29.9614 76.0218 29.9614H80.3678V31.9934H68.1358V31.6134ZM100.411 31.9754C100.401 31.9654 100.393 28.6174 100.393 24.5344V17.1094H102.798V18.6394C102.798 19.4824 102.808 20.1714 102.82 20.1714C102.833 20.1714 102.891 20.0334 102.95 19.8644C103.229 19.0797 103.689 18.3718 104.293 17.7984C104.813 17.2942 105.477 16.9646 106.193 16.8554C106.398 16.8224 106.573 16.8154 106.985 16.8264C107.503 16.8404 107.773 16.8784 108.088 16.9804L108.188 17.0134V19.5054L107.903 19.3634C107.411 19.1145 106.861 19.0042 106.311 19.0444C105.924 19.0644 105.67 19.1144 105.361 19.2304C104.732 19.4621 104.198 19.8971 103.845 20.4664C103.306 21.3453 102.963 22.33 102.84 23.3534C102.82 23.5304 102.809 24.9684 102.804 27.8034L102.797 31.9934H101.613C100.962 31.9934 100.421 31.9854 100.411 31.9754ZM14.3248 0.761414C14.7293 0.761469 15.1237 0.888372 15.4523 1.12426C15.7809 1.36016 16.0273 1.69316 16.1568 2.07641L27.9028 36.8784C28.0009 37.1694 28.0284 37.4795 27.9828 37.7832C27.9373 38.0868 27.8201 38.3753 27.641 38.6247C27.4619 38.8741 27.226 39.0772 26.9527 39.2173C26.6795 39.3574 26.3769 39.4305 26.0698 39.4304H39.6058C40.0687 39.4292 40.5158 39.2623 40.8663 38.9601C41.2168 38.6578 41.4475 38.24 41.5168 37.7824C41.5623 37.479 41.5348 37.1691 41.4368 36.8784L29.6918 2.07641C29.5625 1.69308 29.3161 1.35999 28.9874 1.12408C28.6588 0.888164 28.2644 0.761319 27.8598 0.761414H14.3248ZM13.8878 0.911415C13.4828 0.911644 13.088 1.03882 12.7591 1.27506C12.4301 1.5113 12.1834 1.84471 12.0538 2.22841L0.307807 37.0284C0.209669 37.3191 0.182169 37.629 0.227581 37.9324C0.272994 38.2358 0.390014 38.5241 0.568957 38.7733C0.7479 39.0225 0.98362 39.2255 1.25661 39.3655C1.5296 39.5055 1.83201 39.5785 2.13881 39.5784H11.5898C11.9949 39.5786 12.3899 39.4517 12.719 39.2157C13.0482 38.9796 13.2951 38.6462 13.4248 38.2624L15.7208 31.4874L11.3338 27.2824C11.2538 27.2024 10.8908 26.5374 11.2138 25.9744C11.5758 25.4314 12.1798 25.4314 12.1798 25.4314H17.8338L20.8018 16.8794L15.7268 1.95541C15.7138 1.88241 15.4288 1.50742 14.9808 1.20942C14.5328 0.909415 13.8868 0.911415 13.8868 0.911415H13.8878ZM12.2918 25.6854C12.1128 25.6853 11.938 25.739 11.79 25.8397C11.642 25.9403 11.5277 26.0832 11.4621 26.2498C11.3965 26.4163 11.3826 26.5987 11.4221 26.7733C11.4616 26.9478 11.5528 27.1064 11.6838 27.2284L24.0578 38.7784C24.4178 39.1144 24.8758 39.3114 25.3678 39.3114C25.3678 39.3114 25.7878 39.3404 26.0408 39.3004C26.6348 39.2064 27.1938 38.7214 27.3788 38.5174C27.8548 37.8834 27.6388 36.8974 27.6388 36.8974L23.8928 25.6844L12.2918 25.6854Z" fill="#A1AEE5"/>
</svg>
